<svg xmlns="http://www.w3.org/2000/svg" version="1.1" xmlns:xlink="http://www.w3.org/1999/xlink" xmlns:svgjs="http://svgjs.com/svgjs" width="512" height="512" x="0" y="0" viewBox="0 0 563.736 563.736" style="enable-background:new 0 0 512 512" xml:space="preserve" class=""><g><path fill="#d6d6d4" d="m263.342 33.41 40.146 14.628-134.019 367.816-40.146-14.628c-5.228-1.905-7.921-7.686-6.016-12.914L250.428 39.426c1.905-5.227 7.687-7.921 12.914-6.016z" data-original="#d6d6d4"></path><path d="M169.47 424.195a8.414 8.414 0 0 1-2.858-.505l-40.147-14.631c-9.553-3.482-14.474-14.049-10.992-23.602v-.001L242.599 36.568c3.482-9.553 14.049-14.474 23.602-10.992h.001l40.147 14.631a8.337 8.337 0 0 1 4.975 10.689l-.001.001-134.021 367.819a8.352 8.352 0 0 1-7.832 5.479zm90.43-383.06a1.746 1.746 0 0 0-1.636 1.148L131.139 391.172a1.737 1.737 0 0 0 1.042 2.223l32.306 11.773L292.801 53.022l-32.315-11.781a1.674 1.674 0 0 0-.586-.106z" fill="#000000" data-original="#000000" class=""></path><path fill="#338ed8" d="m303.488 48.037 230.402 83.95c16.96 6.18 25.7 24.938 19.52 41.898l-111.64 306.4c-6.18 16.96-24.938 25.7-41.898 19.52l-230.402-83.95z" data-original="#338ed8"></path><path d="M411.019 510.123a40.797 40.797 0 0 1-14.004-2.483l-230.403-83.95a8.347 8.347 0 0 1-4.975-10.69L295.659 45.182a8.351 8.351 0 0 1 10.69-4.975l230.403 83.949c21.281 7.752 32.249 31.289 24.497 52.57l-.006.017-111.641 306.398a41.09 41.09 0 0 1-38.583 26.982zM180.16 410.875l222.57 81.1c12.63 4.602 26.6-1.906 31.203-14.537l.005-.013 111.639-306.398c4.602-12.633-1.908-26.605-14.541-31.207L308.474 58.73z" fill="#000000" data-original="#000000" class=""></path><path fill="#d6d6d4" d="m337.937 138.758 141.927 51.713c9.028 3.289 13.679 13.274 10.39 22.302l-30.089 82.58c-3.289 9.028-13.274 13.679-22.302 10.39L295.936 254.03c-9.028-3.289-13.679-13.274-10.39-22.302l30.089-82.58c3.29-9.027 13.274-13.679 22.302-10.39z" data-original="#d6d6d4"></path><path d="M443.789 315.129c-2.997 0-5.97-.526-8.785-1.555l-141.927-51.708c-13.336-4.89-20.206-19.645-15.363-32.998l30.092-82.573c4.888-13.33 19.631-20.201 32.982-15.372l141.935 51.716c13.342 4.879 20.215 19.638 15.363 32.99l-30.092 82.582a25.781 25.781 0 0 1-24.205 16.918zm-3.069-17.22a9.066 9.066 0 0 0 11.61-5.406l30.092-82.59a9.068 9.068 0 0 0-5.406-11.61l-141.935-51.716a9.056 9.056 0 0 0-11.607 5.415l-.003.008-30.092 82.573a9.078 9.078 0 0 0 5.414 11.618z" fill="#000000" data-original="#000000" class=""></path><path d="M416.856 221.141a8.39 8.39 0 0 1-2.858-.505l-45.048-16.414a8.337 8.337 0 1 1 5.715-15.665l45.048 16.414a8.337 8.337 0 0 1-2.857 16.17zM416.229 260.905a8.39 8.39 0 0 1-2.858-.505l-69.522-25.329a8.337 8.337 0 1 1 5.715-15.665l69.522 25.329a8.337 8.337 0 0 1-2.857 16.17z" fill="#000000" data-original="#000000" class=""></path><path fill="#d6d6d4" d="M18.413 139.469h42.728v391.472H18.413c-5.564 0-10.074-4.51-10.074-10.074V149.543c0-5.564 4.51-10.074 10.074-10.074z" data-original="#d6d6d4"></path><path d="M61.144 539.279H18.417C8.252 539.269.014 531.034 0 520.87V149.542c.014-10.164 8.252-18.399 18.417-18.408h42.728a8.332 8.332 0 0 1 8.337 8.327v391.48a8.332 8.332 0 0 1-8.327 8.337l-.011.001zM18.417 147.808c-.959 0-1.738.775-1.742 1.734V520.87a1.742 1.742 0 0 0 1.742 1.734h34.391V147.808z" fill="#000000" data-original="#000000" class=""></path><path fill="#feb431" d="M61.141 139.469h245.22c18.051 0 32.684 14.633 32.684 32.684v326.104c0 18.051-14.633 32.684-32.684 32.684H61.141z" data-original="#feb431" class=""></path><path d="M306.357 539.279H61.144a8.332 8.332 0 0 1-8.337-8.328v-391.48a8.332 8.332 0 0 1 8.328-8.337H306.357c22.646.022 41 18.372 41.026 41.018v326.109c-.026 22.645-18.38 40.996-41.026 41.018zM69.482 522.604h236.875c13.441-.013 24.335-10.903 24.352-24.344V172.152c-.017-13.441-10.911-24.331-24.352-24.344H69.482z" fill="#000000" data-original="#000000" class=""></path><path fill="#d6d6d4" d="M124.566 212.915H275.62c9.608 0 17.397 7.789 17.397 17.397v87.89c0 9.608-7.789 17.397-17.397 17.397H124.566c-9.608 0-17.397-7.789-17.397-17.397v-87.89c0-9.608 7.788-17.397 17.397-17.397z" data-original="#d6d6d4"></path><path d="M275.622 343.934H124.568c-14.207-.016-25.72-11.529-25.736-25.736v-87.89c.019-14.204 11.532-25.713 25.736-25.728h151.054c14.204.015 25.717 11.524 25.736 25.728v87.89c-.016 14.207-11.529 25.72-25.736 25.736zM124.568 221.255a9.068 9.068 0 0 0-9.062 9.054v87.89a9.07 9.07 0 0 0 9.062 9.062h151.054a9.07 9.07 0 0 0 9.062-9.062v-87.89a9.067 9.067 0 0 0-9.062-9.054z" fill="#000000" data-original="#000000" class=""></path><path d="M224.06 263.803h-47.938a8.338 8.338 0 0 1 0-16.674h47.938a8.338 8.338 0 0 1 0 16.674zM237.087 301.385h-73.992a8.338 8.338 0 0 1 0-16.674h73.992a8.338 8.338 0 0 1 0 16.674z" fill="#000000" data-original="#000000" class=""></path></g></svg>