<svg xmlns="http://www.w3.org/2000/svg" version="1.1" xmlns:xlink="http://www.w3.org/1999/xlink" xmlns:svgjs="http://svgjs.com/svgjs" width="512" height="512" x="0" y="0" viewBox="0 0 512 512" style="enable-background:new 0 0 512 512" xml:space="preserve" class=""><g><path fill="#d0ddf8" d="M362.234 383.216c8.58 10.38 13.74 23.69 13.74 38.21 0 33.14-26.86 60-60 60-14.52 0-27.83-5.16-38.21-13.74l37.877-55.533zM285.974 8.926c-29.4 0-54.4 18.8-63.66 45.02l50.06 34.54 35.8 65 31.32-35.94c8.77-11.38 13.98-25.65 13.98-41.12 0-37.28-30.22-67.5-67.5-67.5z" data-original="#d0ddf8"></path><path fill="#ffbb99" d="M87.724 51.366c-19.19.04-34.73 15.6-34.72 34.8l-.01 115.74a50.703 50.703 0 0 1-14.87 35.9c-39.53 39.54-39.53 103.64 0 143.18 15.88 15.87 11.06 11.05 26.97 26.96l24.97-167.31 32.54-150.48v-4.01c0-19.174-15.577-34.86-34.88-34.78zM268.484 56.566c-12.64-12.59-32.54-13.46-46.17-2.62-2.936 2.315-.137-.082-63.51 63.18l.87 74.94 65.7-57.579 53.12-49.241c1.197-10.258-2.157-20.826-10.01-28.68z" data-original="#ffbb99"></path><path fill="#ffd9b3" d="m372.064 244.346 9.32-103.06-.01-.01c-7.476-24.848-39.17-33.32-57.93-14.56l-17.84 17.84c13.48-13.48 13.72-35.49-.05-49.27-13.486-13.431-35.521-13.601-49.16.06l-96.72 96.72c-.29-69.76.66-68.24-.87-74.93v-.01c-3.841-16.781-19.387-28.137-36.2-26.97-17.91 1.14-32.54 16.08-32.53 34.74l-.01 115.74c0 6.73-1.34 13.33-3.87 19.43a50.684 50.684 0 0 1-11 16.48c-35.81 35.81-39.18 91.79-10.1 131.4l.02.02.01.02c.91 1.15 4.23 5.88 10.07 11.72l53.69 53.69c39.53 39.54 103.63 39.54 143.17 0l149.52-149.52z" data-original="#ffd9b3" class=""></path><path fill="#e2e9f8" d="M483.244 306.976c-16.76 16.26-40.24 21.9-61.67 16.9-35.386-8.308-57.672-43.661-49.51-79.53 1.59-6.95-.06-14.34-4.82-19.65-23.34-26.05-9.84-69.81 14.14-83.41.38-.23.77-.44 1.16-.64 34.9-18.13 76.55 5.86 78.95 44.58.44 7.21 4.55 13.68 10.68 17.51 36.616 22.897 42.127 74.102 11.07 104.24z" data-original="#e2e9f8"></path><g fill="#231e20"><circle cx="323.474" cy="421.953" r="7.5" fill="#231e20" data-original="#231e20"></circle><circle cx="90.364" cy="177.45" r="7.5" fill="#231e20" data-original="#231e20"></circle><path d="M476.145 196.374c-4.202-2.623-6.882-6.963-7.17-11.611-2.571-41.539-44.983-68.586-83.702-53.562-6.642-12.367-18.807-20.103-31.909-21.802 5.004-10.174 7.609-21.355 7.609-32.974 0-41.355-33.645-75-75-75-31.045 0-58.898 19.226-69.989 48.051-2.162 1.905.886-.964-54.421 54.287-6.552-11.473-18.169-19.287-31.598-20.871-1.65-21.75-19.789-39.029-42.127-39.029-23.478 0-42.35 19.088-42.338 42.299l-.01 115.75a43.212 43.212 0 0 1-12.674 30.597c-42.391 42.391-42.391 111.375.001 153.778 47.474 49.862 34.813 36.465 37.071 38.724l53.69 53.689c42.491 42.501 111.272 42.504 153.777.001l1.148-1.149c11.041 7.364 24.107 11.372 37.468 11.372 37.22 0 67.5-30.28 67.5-67.5 0-13.361-4.008-26.427-11.373-37.468l51.944-51.944c22.626 3.948 46.798-2.561 64.421-19.655 34.535-33.497 28.485-90.514-12.318-115.983zM285.974 16.424c33.084 0 60 26.916 60 60 0 12.57-3.803 24.5-11.019 34.655a41.837 41.837 0 0 0-11.8 6.057c-1.356-20.34-16.852-36.708-37.057-39.138-1.772-23.767-23.036-41.615-47.218-38.737 11.174-14.129 28.409-22.837 47.094-22.837zm-59.151 43.522c16.891-13.598 42.447-2.788 44.297 18.898a42.019 42.019 0 0 0-20.032 11.197l-83.967 83.966c-.064-41.263.351-49.178-.242-54.346 59.694-59.618 58.281-58.473 59.944-59.715zM339.39 395.452a7.5 7.5 0 0 0 10.607 10.607l11.229-11.229a52.607 52.607 0 0 1 7.248 26.593c0 40.444-44.111 65.784-79.093 45.253l18.196-18.196a7.5 7.5 0 0 0-10.607-10.607l-30.22 30.22c-36.632 36.634-95.926 36.646-132.562 0l-53.69-53.69c-37.168-37.16-35.598-96.955-.002-132.553a58.298 58.298 0 0 0 17.067-41.213v-33.2c0-4.142-3.357-7.5-7.5-7.5s-7.5 3.358-7.5 7.5v33.2a43.312 43.312 0 0 1-12.674 30.607c-26.502 26.502-37.621 64.901-28.934 101.837-34.034-36.719-33.225-94.272 2.469-129.966a58.214 58.214 0 0 0 17.066-41.203l.01-115.754c-.008-15.02 12.21-27.265 27.243-27.296 14.582 0 26.053 11.143 27.248 24.882-18.067 4.311-32.429 20.678-32.418 41.154v22.56c0 4.142 3.357 7.5 7.5 7.5s7.5-3.358 7.5-7.5v-22.564c-.008-14.682 11.499-26.37 25.524-27.246 13.456-.885 25.392 8.006 28.395 21.162 1.277 5.578.397 4.613.681 73.16-.087 6.7 8.111 10.227 12.876 5.323l96.646-96.645c10.619-10.622 27.92-10.641 38.553-.054 10.635 10.635 10.695 27.889.166 38.543l-73.935 73.935c-2.914 2.914-2.942 7.669.001 10.611a7.5 7.5 0 0 0 10.607 0l.567-.567-.316.316 91.406-91.413c3.596-3.593 7.808-5.906 12.203-7.072a7.6 7.6 0 0 0 .612-.153c11.752-2.825 24.663 2.491 30.592 13.676-15.285 11.793-24.19 32.509-24.495 51.865l-71.965 71.955a7.498 7.498 0 0 0-.001 10.606 7.5 7.5 0 0 0 10.606.001l63.89-63.881c2.312 7.712 6.161 14.758 11.47 20.682 3.023 3.375 4.181 8.228 3.096 12.984-2.28 9.998-2.471 20.071-.743 29.72L324.911 311.5a7.5 7.5 0 0 0 10.607 10.607l33.421-33.421c7.315 16.782 20.973 30.896 38.74 38.477l-68.289 68.289zm138.633-93.863c-22.48 21.808-59.195 21.957-81.845.335-15.572-14.868-21.345-35.978-16.802-55.907 2.165-9.493-.283-19.336-6.55-26.33h-.001c-19.88-22.183-7.976-61.397 13.173-72.385 30.689-15.946 65.983 5.729 68.006 38.386.586 9.475 5.894 18.226 14.197 23.409 32.411 20.227 37.457 65.686 9.822 92.492z" fill="#231e20" data-original="#231e20"></path></g></g></svg>