<svg xmlns="http://www.w3.org/2000/svg" version="1.1" xmlns:xlink="http://www.w3.org/1999/xlink" xmlns:svgjs="http://svgjs.com/svgjs" width="512" height="512" x="0" y="0" viewBox="0 0 511.999 511.999" style="enable-background:new 0 0 512 512" xml:space="preserve" class=""><g><path d="M476.867 372.396H95.285c-15.237 0-27.589-12.352-27.589-27.59V97.691c0-15.237 12.352-27.589 27.589-27.589h381.581c15.237 0 27.589 12.352 27.589 27.589v247.115c.001 15.238-12.351 27.59-27.588 27.59z" style="" fill="#2b84e9" data-original="#2b84e9" class=""></path><path d="M244.27 369.96h83.62v72.38h-83.62z" style="" fill="#363c44" data-original="#363c44" class=""></path><path d="M244.27 369.96h83.62v19.355h-83.62zM244.27 426.23h83.62v13.669h-83.62z" style="" fill="#292e33" data-original="#292e33" class=""></path><path d="M67.696 344.807c0 15.237 12.352 27.59 27.59 27.59h381.581c15.237 0 27.59-12.352 27.59-27.59v-57.421H67.696v57.421z" style="" fill="#555e6b" data-original="#555e6b" class=""></path><path d="M200.904 70.102H96.245c-15.237 0-27.59 12.352-27.59 27.59v247.115c0 15.237 12.352 27.59 27.59 27.59h104.659V70.102z" style="" fill="#2676c6" data-original="#2676c6"></path><path d="M68.656 287.385v57.421c0 15.237 12.352 27.59 27.59 27.59h104.659v-85.01l-132.249-.001z" style="" fill="#434b56" data-original="#434b56"></path><path d="M158.796 470.451H20.273c-7.03 0-12.729-5.699-12.729-12.729V54.278c0-7.03 5.699-12.729 12.729-12.729h138.523c7.03 0 12.729 5.699 12.729 12.729v403.445c0 7.029-5.699 12.728-12.729 12.728z" style="" fill="#555e6b" data-original="#555e6b" class=""></path><path d="M364.051 470.451h-155.95v-14.865c0-8.664 7.023-15.687 15.687-15.687h124.576c8.664 0 15.687 7.023 15.687 15.687v14.865z" style="" fill="#363c44" data-original="#363c44" class=""></path><circle cx="286.08" cy="327.03" r="14.734" style="" fill="#ffe92f" data-original="#ffe92f"></circle><path d="m55.904 388.543-18.785-93.927a9.22 9.22 0 0 0-1.842-3.953L7.544 256v193.328l46.259-52.906a9.22 9.22 0 0 0 2.101-7.879zM123.166 388.543l18.785-93.927a9.22 9.22 0 0 1 1.842-3.953L171.525 256v193.328l-46.259-52.906a9.223 9.223 0 0 1-2.1-7.879z" style="" fill="#2e343a" data-original="#2e343a"></path><circle cx="87.56" cy="281.1" r="19.866" style="" fill="#ff7b05" data-original="#ff7b05"></circle><path d="m33.24 41.549 16.512 19.962A16.35 16.35 0 0 0 62.35 67.44h53.673c4.758 0 9.279-2.072 12.385-5.676l17.42-20.214H33.24v-.001z" style="" fill="#2e343a" data-original="#2e343a"></path><path d="M140.263 120.341H38.806a5.566 5.566 0 0 1-5.566-5.566V99.828a5.566 5.566 0 0 1 5.566-5.566h101.457a5.566 5.566 0 0 1 5.566 5.566v14.946a5.566 5.566 0 0 1-5.566 5.567zM140.263 174.759H38.806a5.566 5.566 0 0 1-5.566-5.566v-14.946a5.566 5.566 0 0 1 5.566-5.566h101.457a5.566 5.566 0 0 1 5.566 5.566v14.946a5.566 5.566 0 0 1-5.566 5.566z" style="" fill="#707d8c" data-original="#707d8c"></path><path d="M476.867 62.558H200.904c-4.167 0-7.544 3.377-7.544 7.544s3.377 7.544 7.544 7.544h275.963c11.053 0 20.045 8.993 20.045 20.045v182.151h-28.22c-4.167 0-7.544 3.377-7.544 7.544s3.377 7.544 7.544 7.544h28.22v49.877c0 11.053-8.993 20.045-20.045 20.045H179.07V294.93h260.065c4.167 0 7.544-3.377 7.544-7.544s-3.377-7.544-7.544-7.544H179.069V54.277c0-11.178-9.095-20.272-20.273-20.272H20.273C9.095 34.005 0 43.099 0 54.277v403.446c0 11.178 9.095 20.272 20.273 20.272h138.523c11.178 0 20.273-9.094 20.273-20.272V379.94h57.654v52.414h-12.935c-12.81 0-23.232 10.422-23.232 23.232v14.865a7.543 7.543 0 0 0 7.544 7.544h155.951a7.543 7.543 0 0 0 7.544-7.544v-14.865c0-12.81-10.421-23.232-23.231-23.232h-12.936v-19.237c0-4.167-3.377-7.544-7.544-7.544s-7.544 3.377-7.544 7.544v19.237h-68.53V379.94h68.53v4.259c0 4.167 3.377 7.544 7.544 7.544s7.544-3.377 7.544-7.544v-4.259h141.438c19.372 0 35.133-15.761 35.133-35.133V97.691c.001-19.372-15.76-35.133-35.132-35.133zM163.982 429.24l-33.035-37.781a1.69 1.69 0 0 1-.384-1.434l.001-.002 18.785-93.929c.052-.26.168-.509.335-.717l14.298-17.872V429.24zM129.369 49.093l-6.676 7.745a8.796 8.796 0 0 1-6.67 3.057H62.351a8.783 8.783 0 0 1-6.786-3.192l-6.294-7.61h80.098zm29.427 413.814H20.273a5.19 5.19 0 0 1-5.185-5.184v-5.561l44.396-50.774c3.406-3.898 4.833-9.253 3.817-14.324L55.125 345a7.545 7.545 0 0 0-14.795 2.959l8.177 42.065a1.69 1.69 0 0 1-.383 1.433L15.088 429.24V277.504l14.299 17.873c.166.207.282.456.334.718l3.583 17.917c.817 4.085 4.792 6.742 8.877 5.918a7.545 7.545 0 0 0 5.918-8.877l-3.583-17.915a16.817 16.817 0 0 0-3.349-7.188l-26.08-32.596V54.277a5.19 5.19 0 0 1 5.185-5.184h9.417L43.94 66.32a23.823 23.823 0 0 0 18.411 8.663h53.673a23.873 23.873 0 0 0 18.099-8.294l15.164-17.596h9.509a5.19 5.19 0 0 1 5.185 5.184v199.076l-26.079 32.595a16.825 16.825 0 0 0-3.35 7.187l-18.785 93.927c-1.015 5.072.412 10.427 3.818 14.325l44.395 50.773v5.561a5.188 5.188 0 0 1-5.184 5.186zm169.089-15.466h20.48c4.49 0 8.143 3.653 8.143 8.144v7.321H215.645v-7.321c0-4.491 3.653-8.144 8.144-8.144h104.096z" fill="#000000" data-original="#000000" class=""></path><circle cx="466.29" cy="328.71" r="7.544" fill="#000000" data-original="#000000" class=""></circle><circle cx="439.13" cy="328.71" r="7.544" fill="#000000" data-original="#000000" class=""></circle><circle cx="412.31" cy="328.71" r="7.544" fill="#000000" data-original="#000000" class=""></circle><path d="M263.798 327.033c0 12.284 9.994 22.278 22.278 22.278s22.278-9.994 22.278-22.278c0-12.284-9.994-22.278-22.278-22.278-12.284 0-22.278 9.994-22.278 22.278zm29.468 0c0 3.964-3.226 7.19-7.19 7.19s-7.19-3.226-7.19-7.19 3.226-7.19 7.19-7.19 7.19 3.226 7.19 7.19zM72.135 433.402H54.323c-4.167 0-7.544 3.377-7.544 7.544s3.377 7.544 7.544 7.544h17.812a7.544 7.544 0 1 0 0-15.088zM118.914 433.402h-17.812c-4.167 0-7.544 3.377-7.544 7.544s3.377 7.544 7.544 7.544h17.812c4.167 0 7.544-3.377 7.544-7.544s-3.377-7.544-7.544-7.544zM114.971 281.099c0-15.113-12.296-27.41-27.41-27.41s-27.41 12.296-27.41 27.41 12.296 27.41 27.41 27.41 27.41-12.296 27.41-27.41zm-27.41 12.322c-6.794 0-12.322-5.527-12.322-12.322s5.527-12.322 12.322-12.322c6.794 0 12.322 5.527 12.322 12.322s-5.527 12.322-12.322 12.322zM38.807 127.884h101.456c7.23 0 13.11-5.881 13.11-13.109V99.828c0-7.23-5.881-13.11-13.11-13.11H38.807c-7.23 0-13.11 5.881-13.11 13.11v14.946c-.001 7.229 5.88 13.11 13.11 13.11zm1.977-26.078h97.501v10.991H40.784v-10.991zM153.373 169.193v-14.946c0-7.23-5.881-13.11-13.11-13.11H38.807c-7.23 0-13.11 5.881-13.11 13.11v14.946c0 7.229 5.881 13.109 13.11 13.109h101.456c7.229.001 13.11-5.88 13.11-13.109zm-15.088-1.978H40.784v-10.991h97.501v10.991z" fill="#000000" data-original="#000000" class=""></path></g></svg>