<svg xmlns="http://www.w3.org/2000/svg" version="1.1" xmlns:xlink="http://www.w3.org/1999/xlink" xmlns:svgjs="http://svgjs.com/svgjs" width="512" height="512" x="0" y="0" viewBox="0 0 480 480" style="enable-background:new 0 0 512 512" xml:space="preserve" class=""><g><g data-name="07-healthy"><path fill="#76ace7" d="M80 16h144v48H80z" data-original="#76ace7"></path><g fill="#e0deda"><path d="M176 128H32l48-64h144zM32 128h144v208H32z" fill="#e0deda" data-original="#e0deda" class=""></path><path d="m224 64 48 64h-96zM176 128h96v208h-96z" fill="#e0deda" data-original="#e0deda" class=""></path></g><path fill="#a3c7ef" d="M32 192h144v144H32z" data-original="#a3c7ef"></path><path fill="#f28369" d="M336 208c-80-64-128 9.308-128 80s64 137.3 128 105.3c64 32 128-34.612 128-105.3s-48-144-128-80z" data-original="#f28369" class=""></path><ellipse cx="379.708" cy="128" fill="#9ec645" rx="27.708" ry="16" data-original="#9ec645"></ellipse><path fill="#f9cb8b" d="M140.073 358.383c-13.362 46.1-2.449 65.924 59.021 83.74s239.422 36.076 248.33 5.34S296.2 337 234.727 319.183s-81.292-6.903-94.654 39.2z" data-original="#f9cb8b"></path><path fill="#c1d776" d="M87.511 309.832c-15.368-4.454-61.471-17.816-70.379 12.919s37.195 44.1 52.562 48.551c-55.01 17.373-48.551 52.562-17.816 61.47s83.741-59.022 83.741-59.022l8.908-30.735s-8.465-85.745-39.2-94.654-55.011 17.374-17.816 61.471z" data-original="#c1d776"></path><path fill="#382a15" d="M379.708 152a40.142 40.142 0 0 0 34.633-19.993 8 8 0 0 0 0-8.014 39.992 39.992 0 0 0-69.265 0 8 8 0 0 0 0 8.014A40.142 40.142 0 0 0 379.708 152zm0-32a24.089 24.089 0 0 1 17.874 8 23.966 23.966 0 0 1-35.747 0 24.088 24.088 0 0 1 17.873-8z" data-original="#382a15" class=""></path><path fill="#382a15" d="M431.666 410.773c-5.256-4.311-11.463-8.91-18.5-13.718C447.928 376.334 472 332.831 472 288c0-40.636-16.012-89.335-51.784-106.528-14.794-7.11-37.554-10.8-67.444 5.581-1.429-14.286-5.77-26.229-9.856-37.442-7.721-21.184-13.819-37.916.239-66.033l-14.31-7.156c-17.14 34.28-8.916 56.845-.962 78.668 4.625 12.69 9.338 25.637 9.3 41.948-.4.289-.787.561-1.185.857-21.959-16.334-40.706-22.078-56-22.431V128a8.129 8.129 0 0 0-1.6-4.8L232 61.334V16a8 8 0 0 0-8-8H80a8 8 0 0 0-8 8v45.334L25.6 123.2A8.129 8.129 0 0 0 24 128v173.146a32.521 32.521 0 0 0-14.551 19.377c-3.379 11.658-2.547 28.6 20.608 43.134a108.6 108.6 0 0 0 16.9 8.444c-23.713 12.892-26.552 28.7-26.467 35.869.175 14.651 11.621 27.4 29.16 32.486a28.668 28.668 0 0 0 8.017 1.1c14.415 0 32.211-9.751 53.049-29.1 6.269-5.82 12-11.746 16.8-16.981a46.677 46.677 0 0 0 3.528 12.894c6.205 14.1 19.162 24.412 42.012 33.447l5.884-14.879c-35.084-13.873-42.078-28.752-31.186-66.336 6.424-22.163 13.844-33.667 24.811-38.468 12.019-5.262 30.5-3.805 59.933 4.724 2.408.7 4.97 1.5 7.642 2.372l-20 69.01 15.367 4.454 19.745-68.128c31.467 11.819 73.178 31.286 108.316 50.891 8.545 4.767 16.166 9.237 22.972 13.42l-8.27 28.544 15.367 4.455 6.957-24c33.3 22.235 40.009 34.387 39.146 37.364-.037.128-5.748 12.7-79.094 10.517-17.482-.52-36.74-1.856-56.116-3.815l7.815-26.966-15.367-4.454-8.592 29.645c-22.433-2.661-44.4-6.092-63.311-10l-3.236 15.668c40.538 8.373 94.837 14.619 138.332 15.912a568.32 568.32 0 0 0 16.808.262c63.816 0 75.293-12.533 78.128-22.318 3.146-10.852-4.307-23.218-23.441-38.917zM256 120h-64l32-42.667zM88 24h128v32H88zm-4 48h124l-36 48H48zm-44 64h128v48H40zm88.368 234.028c-20.808 26.273-56.944 60.078-74.263 55.06-10.612-3.075-17.526-9.87-17.615-17.309-.1-8.477 9.2-20.508 35.614-28.849a8 8 0 0 0-.184-15.312c-36.191-10.491-51.6-23.13-47.1-38.64 2.676-9.234 10.767-13.836 24.514-13.836 9.345 0 21.306 2.128 35.954 6.373a8 8 0 0 0 8.342-12.842c-17.862-21.173-19.29-36.312-14.671-43.421 4.053-6.239 13.529-8.282 24.141-5.207 17.319 5.02 29.775 52.911 33.31 86.238zm37.783-62.543a44.931 44.931 0 0 0-16.851 12.792c-1.255-6.98-2.928-15.037-5.109-23.292-8.675-32.832-21-51.777-36.633-56.307-17.54-5.084-34.032-.43-42.012 11.858-3.9 6.008-9.961 20.888 3.184 44.462a108.809 108.809 0 0 0-18.8-1.9h-.3a67.31 67.31 0 0 0-9.625.657V200H168v56h16V136h80v41.134a61.013 61.013 0 0 0-12.216 4.338C216.012 198.665 200 247.364 200 288a127.67 127.67 0 0 0 .994 15.741c-14.394-1.607-25.527-.334-34.843 3.744zm231.717 79.6c-8.119-5.065-16.992-10.29-26.5-15.6-45.468-25.367-102-50.6-134.411-59.993-6.983-2.024-13.42-3.674-19.391-4.967A112.681 112.681 0 0 1 216 288c0-42.144 17.565-80.02 42.715-92.107 20.166-9.693 45.162-3.346 72.287 18.354a7.949 7.949 0 0 0 4.1 1.678 122.047 122.047 0 0 1-4.413 15.463 24.109 24.109 0 0 1-15.484-11.394l-13.85 8.012a40.011 40.011 0 0 0 69.288 0l-13.85-8.012a24.043 24.043 0 0 1-8.355 8.5 118.942 118.942 0 0 0 4.419-22.844c22.537-14.622 43.238-18.023 60.427-9.761C438.435 207.98 456 245.856 456 288c0 41.742-24.742 83.505-58.132 99.088z" data-original="#382a15" class=""></path></g></g></svg>