<svg xmlns="http://www.w3.org/2000/svg" version="1.1" xmlns:xlink="http://www.w3.org/1999/xlink" xmlns:svgjs="http://svgjs.com/svgjs" width="512" height="512" x="0" y="0" viewBox="0 0 32 32" style="enable-background:new 0 0 512 512" xml:space="preserve" class=""><g><g data-name="open file"><path fill="#4294ff" d="M29 13.12V27a2.006 2.006 0 0 1-2 2H5a2.006 2.006 0 0 1-2-2V13.12a1.978 1.978 0 0 1 .37-1.16 2.032 2.032 0 0 1 .58-.55L7 9.79v6.36L16 21l2.5-1.35 6.5-3.5V9.79l3.05 1.62a2.024 2.024 0 0 1 .95 1.71z" data-original="#4294ff" class=""></path><path fill="#376cfb" d="M3.95 11.41 7 9.79v6.36l-2.99-1.6c-.01 0 0-.01 0-.01L3 14v-.88a2.072 2.072 0 0 1 .95-1.71zM29 13.12V14l-4 2.15V9.79l3.05 1.62a2.024 2.024 0 0 1 .95 1.71z" data-original="#376cfb"></path><path fill="#e6ecff" d="M25 3v13.15l-6.39 3.45L16 21l-9-4.85V3z" data-original="#e6ecff"></path><path fill="#b7c6e2" d="M18.61 19.6 16 21l-9-4.85V3h3.73c.59 5.34 2.58 12.18 7.88 16.6z" data-original="#b7c6e2"></path><path fill="#2965ed" d="M19.99 29H5a2.006 2.006 0 0 1-2-2V13.12a1.978 1.978 0 0 1 .37-1.16C4.44 17.69 8.1 25.93 19.99 29z" data-original="#2965ed"></path><path fill="#376cfb" d="M29 27a2.006 2.006 0 0 1-2 2H5a2.006 2.006 0 0 1-2-2l5.87-4.11 4.62-3.24L16 21l2.5-1.35z" data-original="#376cfb"></path><path fill="#2045ce" d="M4.01 14.54 3 14v-.88a1.948 1.948 0 0 1 .37-1.15 21.889 21.889 0 0 0 .64 2.57zM19.99 29H5a2.006 2.006 0 0 1-2-2l5.87-4.11A23.207 23.207 0 0 0 19.99 29z" data-original="#2045ce"></path><g fill="#232328"><path d="M28.519 10.527 26 9.19V3a1 1 0 0 0-1-1H7a1 1 0 0 0-1 1v6.19l-2.581 1.373A3.005 3.005 0 0 0 2 13.12V27a3.003 3.003 0 0 0 3 3h22a3.003 3.003 0 0 0 3-3V13.12a3.028 3.028 0 0 0-1.481-2.593zm-8.114 9.236L28 15.674v9.405zm7.114-7.505a1.014 1.014 0 0 1 .481.862v.283l-2 1.077v-3.028zM8 4h16v11.554l-8 4.31-8-4.31zM4 15.674l7.594 4.09L4 25.078zm.42-3.381 1.58-.84v3.027l-2-1.077v-.283a1 1 0 0 1 .42-.827zM27 28H5a.994.994 0 0 1-.886-.559l9.452-6.616 1.96 1.055a.996.996 0 0 0 .948 0l1.96-1.055 9.452 6.616A.994.994 0 0 1 27 28z" fill="#232328" data-original="#232328" class=""></path><path d="M12 8h8a1 1 0 0 0 0-2h-8a1 1 0 0 0 0 2zM12 12h8a1 1 0 0 0 0-2h-8a1 1 0 0 0 0 2zM12 16h8a1 1 0 0 0 0-2h-8a1 1 0 0 0 0 2z" fill="#232328" data-original="#232328" class=""></path></g></g></g></svg>