<svg xmlns="http://www.w3.org/2000/svg" version="1.1" xmlns:xlink="http://www.w3.org/1999/xlink" xmlns:svgjs="http://svgjs.com/svgjs" width="512" height="512" x="0" y="0" viewBox="0 0 682.667 682.667" style="enable-background:new 0 0 512 512" xml:space="preserve" class=""><g><defs><clipPath id="a" clipPathUnits="userSpaceOnUse"><path d="M0 512h512V0H0Z" fill="#000000" data-original="#000000"></path></clipPath></defs><g clip-path="url(#a)" transform="matrix(1.33333 0 0 -1.33333 0 682.667)"><path d="M0 0v-206.12c0-26.67-10.81-50.82-28.29-68.3-17.48-17.48-41.63-28.29-68.3-28.29-6.68 0-13.2.68-19.5 1.97-44 9.02-77.09 47.95-77.09 94.62V0c0 46.67 33.09 85.6 77.09 94.62a97.12 97.12 0 0 0 19.5 1.97C-43.25 96.59 0 53.35 0 0" style="fill-opacity:1;fill-rule:nonzero;stroke:none" transform="translate(465.638 310.215)" fill="#e1f9ff" data-original="#e1f9ff"></path><path d="M0 0v-206.12c0-26.67-10.81-50.82-28.29-68.3-17.48-17.48-41.63-28.29-68.3-28.29-6.68 0-13.2.68-19.5 1.97 44 9.02 77.09 47.95 77.09 94.62V0c0 46.67-33.09 85.6-77.09 94.62a97.12 97.12 0 0 0 19.5 1.97C-43.25 96.59 0 53.35 0 0" style="fill-opacity:1;fill-rule:nonzero;stroke:none" transform="translate(465.638 310.215)" fill="#c2e8ef" data-original="#c2e8ef"></path><path d="M0 0v-103.06c0-26.67-10.81-50.82-28.29-68.3-17.48-17.48-41.63-28.29-68.3-28.29-6.68 0-13.2.68-19.5 1.97-44 9.02-77.09 47.95-77.09 94.62V0Z" style="fill-opacity:1;fill-rule:nonzero;stroke:none" transform="translate(465.638 207.155)" fill="#ff6248" data-original="#ff6248" class=""></path><path d="M0 0v-103.06c0-26.67-10.81-50.82-28.29-68.3-17.48-17.48-41.63-28.29-68.3-28.29-6.68 0-13.2.68-19.5 1.97 44 9.02 77.09 47.95 77.09 94.62V0Z" style="fill-opacity:1;fill-rule:nonzero;stroke:none" transform="translate(465.638 207.155)" fill="#ff0000" data-original="#ff0000"></path><path d="M0 0v-272.01c0-27.05-21.931-48.97-48.98-48.97h-171.331c-22.559 0-41.559 15.25-47.24 36a48.722 48.722 0 0 0-1.739 12.97V0c0 7.27 2.35 14.34 6.689 20.17l43.311 58.14H-50l43.319-58.14A33.761 33.761 0 0 0 0 0" style="fill-opacity:1;fill-rule:nonzero;stroke:none" transform="translate(315.65 328.5)" fill="#e1f9ff" data-original="#e1f9ff"></path><path d="M0 0v-272.01c0-27.05-21.931-48.97-48.98-48.97h-171.331c-22.559 0-41.559 15.25-47.24 36H-86.98c27.049 0 48.98 21.92 48.98 48.97V4c0 7.27-2.34 14.34-6.681 20.17L-85.92 78.31H-50l43.319-58.14A33.761 33.761 0 0 0 0 0" style="fill-opacity:1;fill-rule:nonzero;stroke:none" transform="translate(315.65 328.5)" fill="#c2e8ef" data-original="#c2e8ef"></path><path d="M315.65 68.31H46.36v226.75h269.29z" style="fill-opacity:1;fill-rule:nonzero;stroke:none" fill="#ff6248" data-original="#ff6248" class=""></path><path d="M0 0v-226.75h-44.381C-40.32-219.62-38-211.37-38-202.57V0Z" style="fill-opacity:1;fill-rule:nonzero;stroke:none" transform="translate(315.65 295.06)" fill="#ff0000" data-original="#ff0000"></path><path d="M0 0h-34.578v34.578h-30V0h-34.578v-30h34.578v-34.578h30V-30H0Z" style="fill-opacity:1;fill-rule:nonzero;stroke:none" transform="translate(230.586 196.688)" fill="#e1f9ff" data-original="#e1f9ff"></path><path d="M0 0c-12.594 0-22.804-10.21-22.804-22.804v-52.081c0-12.594 10.21-22.804 22.804-22.804h169.291c12.594 0 22.804 10.21 22.804 22.804v52.081C192.095-10.21 181.885 0 169.291 0Z" style="fill-opacity:1;fill-rule:nonzero;stroke:none" transform="translate(96.362 504.495)" fill="#aac2cc" data-original="#aac2cc"></path><path d="M0 0v75.322a33.751 33.751 0 0 0 6.686 20.165L50 153.628h169.291l43.314-58.141a33.751 33.751 0 0 0 6.686-20.165v-272.007c0-27.049-21.929-48.978-48.979-48.978H48.979C21.929-245.663 0-223.734 0-196.685v161.176" style="stroke-width:15;stroke-linecap:round;stroke-linejoin:miter;stroke-miterlimit:10;stroke-dasharray:none;stroke-opacity:1" transform="translate(46.362 253.178)" fill="none" stroke="#000000" stroke-width="15" stroke-linecap="round" stroke-linejoin="miter" stroke-miterlimit="10" stroke-dasharray="none" stroke-opacity="" data-original="#000000" class=""></path><path d="M0 0h-15.625c-12.594 0-22.804-10.21-22.804-22.804v-52.081c0-12.594 10.21-22.804 22.804-22.804h169.291c12.594 0 22.804 10.21 22.804 22.804v52.081C176.47-10.21 166.26 0 153.666 0H34.892" style="stroke-width:15;stroke-linecap:round;stroke-linejoin:miter;stroke-miterlimit:10;stroke-dasharray:none;stroke-opacity:1" transform="translate(111.987 504.495)" fill="none" stroke="#000000" stroke-width="15" stroke-linecap="round" stroke-linejoin="miter" stroke-miterlimit="10" stroke-dasharray="none" stroke-opacity="" data-original="#000000" class=""></path><path d="M0 0h-47.149" style="stroke-width:15;stroke-linecap:round;stroke-linejoin:miter;stroke-miterlimit:10;stroke-dasharray:none;stroke-opacity:1" transform="translate(315.653 68.313)" fill="none" stroke="#000000" stroke-width="15" stroke-linecap="round" stroke-linejoin="miter" stroke-miterlimit="10" stroke-dasharray="none" stroke-opacity="" data-original="#000000" class=""></path><path d="M0 0h269.291" style="stroke-width:15;stroke-linecap:round;stroke-linejoin:miter;stroke-miterlimit:10;stroke-dasharray:none;stroke-opacity:1" transform="translate(46.362 295.063)" fill="none" stroke="#000000" stroke-width="15" stroke-linecap="round" stroke-linejoin="miter" stroke-miterlimit="10" stroke-dasharray="none" stroke-opacity="" data-original="#000000" class=""></path><path d="M0 0h-187.149" style="stroke-width:15;stroke-linecap:round;stroke-linejoin:miter;stroke-miterlimit:10;stroke-dasharray:none;stroke-opacity:1" transform="translate(233.512 68.313)" fill="none" stroke="#000000" stroke-width="15" stroke-linecap="round" stroke-linejoin="miter" stroke-miterlimit="10" stroke-dasharray="none" stroke-opacity="" data-original="#000000" class=""></path><path d="M0 0v-38.029" style="stroke-width:15;stroke-linecap:round;stroke-linejoin:miter;stroke-miterlimit:10;stroke-dasharray:none;stroke-opacity:1" transform="translate(181.008 474.665)" fill="none" stroke="#000000" stroke-width="15" stroke-linecap="round" stroke-linejoin="miter" stroke-miterlimit="10" stroke-dasharray="none" stroke-opacity="" data-original="#000000" class=""></path><path d="M0 0v-38.029" style="stroke-width:15;stroke-linecap:round;stroke-linejoin:miter;stroke-miterlimit:10;stroke-dasharray:none;stroke-opacity:1" transform="translate(102.986 474.665)" fill="none" stroke="#000000" stroke-width="15" stroke-linecap="round" stroke-linejoin="miter" stroke-miterlimit="10" stroke-dasharray="none" stroke-opacity="" data-original="#000000" class=""></path><path d="M0 0v-38.029" style="stroke-width:15;stroke-linecap:round;stroke-linejoin:miter;stroke-miterlimit:10;stroke-dasharray:none;stroke-opacity:1" transform="translate(141.997 474.665)" fill="none" stroke="#000000" stroke-width="15" stroke-linecap="round" stroke-linejoin="miter" stroke-miterlimit="10" stroke-dasharray="none" stroke-opacity="" data-original="#000000" class=""></path><path d="M0 0v-38.029" style="stroke-width:15;stroke-linecap:round;stroke-linejoin:miter;stroke-miterlimit:10;stroke-dasharray:none;stroke-opacity:1" transform="translate(219.867 474.665)" fill="none" stroke="#000000" stroke-width="15" stroke-linecap="round" stroke-linejoin="miter" stroke-miterlimit="10" stroke-dasharray="none" stroke-opacity="" data-original="#000000" class=""></path><path d="M0 0v-38.029" style="stroke-width:15;stroke-linecap:round;stroke-linejoin:miter;stroke-miterlimit:10;stroke-dasharray:none;stroke-opacity:1" transform="translate(258.878 474.665)" fill="none" stroke="#000000" stroke-width="15" stroke-linecap="round" stroke-linejoin="miter" stroke-miterlimit="10" stroke-dasharray="none" stroke-opacity="" data-original="#000000" class=""></path><path d="M0 0c14.49 8.68 31.44 13.67 49.561 13.67 53.349 0 96.589-43.24 96.589-96.59v-206.12c0-53.34-43.24-96.59-96.589-96.59-9.79 0-19.241 1.46-28.141 4.17" style="stroke-width:15;stroke-linecap:round;stroke-linejoin:miter;stroke-miterlimit:10;stroke-dasharray:none;stroke-opacity:1" transform="translate(319.487 393.135)" fill="none" stroke="#000000" stroke-width="15" stroke-linecap="round" stroke-linejoin="miter" stroke-miterlimit="10" stroke-dasharray="none" stroke-opacity="" data-original="#000000" class=""></path><path d="M0 0h-114.98" style="stroke-width:15;stroke-linecap:round;stroke-linejoin:miter;stroke-miterlimit:10;stroke-dasharray:none;stroke-opacity:1" transform="translate(465.638 207.155)" fill="none" stroke="#000000" stroke-width="15" stroke-linecap="round" stroke-linejoin="miter" stroke-miterlimit="10" stroke-dasharray="none" stroke-opacity="" data-original="#000000" class=""></path><path d="M0 0h-34.578v34.578h-30V0h-34.578v-30h34.578v-34.578h30V-30H0Z" style="stroke-width:15;stroke-linecap:round;stroke-linejoin:round;stroke-miterlimit:10;stroke-dasharray:none;stroke-opacity:1" transform="translate(230.586 196.688)" fill="none" stroke="#000000" stroke-width="15" stroke-linecap="round" stroke-linejoin="round" stroke-miterlimit="10" stroke-dasharray="none" stroke-opacity="" data-original="#000000" class=""></path></g></g></svg>