<svg xmlns="http://www.w3.org/2000/svg" version="1.1" xmlns:xlink="http://www.w3.org/1999/xlink" xmlns:svgjs="http://svgjs.com/svgjs" width="512" height="512" x="0" y="0" viewBox="0 0 512 512" style="enable-background:new 0 0 512 512" xml:space="preserve" class=""><g><path fill="#08a30b" fill-rule="evenodd" d="m95.295 99.421 389.965 77.041c10.54 2.082 17.46 12.41 15.377 22.95L461.869 395.65c-2.083 10.54-12.409 17.46-22.95 15.377L48.955 333.986c-10.54-2.082-17.46-12.409-15.378-22.95l38.769-196.237c2.082-10.54 12.409-17.46 22.949-15.378z" data-original="#08a30b"></path><rect width="457.1" height="239.098" x="11.008" y="173.836" fill="#2ab52d" rx="19.534" data-original="#2ab52d" class=""></rect><path fill="#32d736" fill-rule="evenodd" d="M73.615 199.23h331.887c0 20.552 16.661 37.212 37.212 37.212v113.885c-20.552 0-37.212 16.661-37.212 37.212H73.615c0-20.552-16.661-37.212-37.212-37.212V236.442c20.552 0 37.212-16.661 37.212-37.212z" data-original="#32d736" class=""></path><circle cx="239.558" cy="293.385" r="68.761" fill="#7dff7f" data-original="#7dff7f" class=""></circle><path fill-rule="evenodd" d="M265.361 317.842c-2.026 8.514-9.698 14.511-19.813 15.949v7.435a6 6 0 1 1-12 0v-7.89c-9.414-2.106-18.278-8.462-20.41-19.698a6.002 6.002 0 0 1 4.777-7.014 6.003 6.003 0 0 1 7.012 4.78c1.459 7.681 9.153 10.573 15.3 10.715 5.617.133 12.263-2.021 13.459-7.056.669-2.811 2.233-9.395-10.95-13.999-1.467-.511-3.102-.989-4.832-1.491-5.742-1.67-12.248-3.559-17.003-8.093-8.3-7.918-9.277-20.645-2.272-29.613 3.494-4.472 8.857-7.459 14.919-8.647v-7.658a6 6 0 1 1 12 0v7.653a27.32 27.32 0 0 1 1.708.36c9.972 2.437 16.922 9.29 18.595 18.335a6 6 0 0 1-11.799 2.182c-1.137-6.148-7.127-8.245-9.65-8.864-6.409-1.567-13.27.123-16.317 4.027-2.779 3.559-3.294 9.352 1.096 13.541 2.636 2.508 7.432 3.905 12.072 5.253 1.807.525 3.672 1.069 5.441 1.685 14.873 5.196 21.676 15.443 18.667 28.108zm-25.814 38.312c34.607 0 62.761-28.151 62.761-62.762s-28.154-62.757-62.761-62.757-62.761 28.151-62.761 62.757 28.154 62.762 62.761 62.762zm0-137.521c-41.223 0-74.76 33.537-74.76 74.759s33.536 74.764 74.76 74.764 74.761-33.537 74.761-74.764-33.538-74.759-74.761-74.759zm197.158 126.12V242.037c-19.037-2.655-34.143-17.762-36.799-36.797H79.189c-2.657 19.035-17.761 34.142-36.798 36.797v102.716c19.036 2.655 34.141 17.762 36.798 36.797h320.717c2.656-19.035 17.762-34.142 36.799-36.797zm5.999-114.302c-17.212 0-31.212-13.999-31.212-31.213a6.001 6.001 0 0 0-6.001-6.001H73.604a6 6 0 0 0-5.999 6.001c0 17.213-14.003 31.213-31.213 31.213a6.003 6.003 0 0 0-6.001 6.001v113.885a6.003 6.003 0 0 0 6.001 6.001c17.21 0 31.213 13.999 31.213 31.213a6 6 0 0 0 5.999 6.001h331.887a6.001 6.001 0 0 0 6.001-6.001c0-17.213 14.001-31.213 31.212-31.213a6 6 0 0 0 5.999-6.001V236.452a6 6 0 0 0-5.999-6.001zm52.037-32.192L474.097 302.75V193.38c0-5.078-1.497-9.816-4.067-13.801l14.058 2.778c3.526.696 6.578 2.74 8.599 5.76 2.021 3.015 2.75 6.617 2.054 10.142zm-32.644 195.152V193.379c0-7.464-6.071-13.531-13.534-13.531H30.532c-7.463 0-13.535 6.067-13.535 13.531v200.032c0 7.464 6.071 13.536 13.535 13.536h418.031c7.463 0 13.534-6.072 13.534-13.536zM78.222 115.974c1.445-7.326 8.58-12.106 15.901-10.658l316.506 62.529H67.973zm424.437 65.459c-3.805-5.679-9.575-9.532-16.248-10.848L96.447 93.541c-13.812-2.721-27.27 6.29-29.998 20.105l-10.708 54.2H30.532c-14.08 0-25.533 11.453-25.533 25.533v200.032c0 14.075 11.453 25.533 25.533 25.533h418.031c14.08 0 25.535-11.458 25.535-25.533v-28.742l32.414-164.086c1.321-6.668-.052-13.469-3.852-19.149z" fill="#000000" data-original="#000000" class=""></path></g></svg>