<svg xmlns="http://www.w3.org/2000/svg" version="1.1" xmlns:xlink="http://www.w3.org/1999/xlink" xmlns:svgjs="http://svgjs.com/svgjs" width="512" height="512" x="0" y="0" viewBox="0 0 48 48" style="enable-background:new 0 0 512 512" xml:space="preserve" class=""><g><path fill="#ffb044" d="M.75 11.43h27.92v35.78H.75z" data-original="#ffb044" class=""></path><path fill="#ffc261" d="M28.67 11.43v33.42H9.8a4.842 4.842 0 0 1-4.84-4.842V11.43z" data-original="#ffc261" class=""></path><path fill="#ee6148" d="M13.91 21.06h33.34v26.15H13.91z" data-original="#ee6148" class=""></path><path fill="#ff6e56" d="M47.25 21.06v23.79h-24.3a4.842 4.842 0 0 1-4.842-4.842V21.06z" data-original="#ff6e56" class=""></path><path d="M47.25 20.312H13.909a.75.75 0 0 0-.75.75v26.144a.75.75 0 0 0 .75.75H47.25a.75.75 0 0 0 .75-.75V21.062a.75.75 0 0 0-.75-.75zm-.75 26.144H14.659V21.812H46.5z" fill="#000000" data-original="#000000" class=""></path><path d="M10.472 46.456H1.5V12.175h6.3v2.146h-.38a.75.75 0 0 0 0 1.5h2.25a.75.75 0 0 0 0-1.5H9.3v-2.146h10.824v2.146h-.377a.75.75 0 0 0 0 1.5H22a.75.75 0 0 0 0-1.5h-.377v-2.146h6.3v5.49a.75.75 0 0 0 1.5 0v-6.24a.75.75 0 0 0-.75-.75h-7.049V6.958a6.914 6.914 0 1 0-13.828 0v3.717H.75a.75.75 0 0 0-.75.75v35.781a.75.75 0 0 0 .75.75h9.722a.75.75 0 1 0 0-1.5zM9.3 6.958a5.414 5.414 0 1 1 10.828 0v3.717H9.3z" fill="#000000" data-original="#000000" class=""></path><path d="M23.534 25.827h.339v1.378a6.707 6.707 0 0 0 13.413 0v-1.378h.339a.75.75 0 0 0 0-1.5h-2.179a.75.75 0 0 0 0 1.5h.34v1.378a5.207 5.207 0 0 1-10.413 0v-1.378h.339a.75.75 0 0 0 0-1.5h-2.178a.75.75 0 0 0 0 1.5z" fill="#000000" data-original="#000000" class=""></path></g></svg>