<svg xmlns="http://www.w3.org/2000/svg" version="1.1" xmlns:xlink="http://www.w3.org/1999/xlink" xmlns:svgjs="http://svgjs.com/svgjs" width="512" height="512" x="0" y="0" viewBox="0 0 512 512" style="enable-background:new 0 0 512 512" xml:space="preserve" class="hovered-paths"><g><g data-name="Fill out line"><path d="M457.04 198.24C489 265.93 488.52 344 440 344c-56 0-152-16-192-16s-88 16-168 16c-61.81 0-51.99-52.53-25.87-94.87C50.91 216.41 43.53 184.36 32 144c-16-56-8-72 40-72s112 16 184 16 152-16 192-16c37.98 0 61.53 64.9 9.04 126.24Z" style="" fill="#b1cdb4" data-original="#b1cdb4" class=""></path><path d="M400 496H96c0-126.06 103.11-121.48 118.16-145.67A11.624 11.624 0 0 0 216 344c0-32-56-8-56-88v-88l208-16v88c0 80-88 72-88 104a11.641 11.641 0 0 0 1.83 6.32C296.86 374.52 400 369.92 400 496Z" style="" fill="#f5a971" data-original="#f5a971" class=""></path><path d="M400 496H96c0-53.75 18.75-83.75 41.42-102.35 21.89-17.96 47.43-25.3 63.3-33.15 6.25-3.09 11-6.25 13.44-10.17a64.001 64.001 0 0 0 67.67-.01c2.43 3.92 7.19 7.09 13.44 10.18C327.59 376.46 400 390.36 400 496Z" style="" fill="#537ec2" data-original="#537ec2" class=""></path><path d="M496 376v120H16V384c128 0 72 64 256 64 144 0 160-72 224-72Z" style="" fill="#b1cdb4" data-original="#b1cdb4" class=""></path><path d="M496 376v32c-15.51 0-26.43 6.58-47.72 20.26C414.32 450.1 367.8 480 272 480c-109.89 0-145-23.06-173.22-41.58C78.96 425.4 64.64 416 16 416v-32c128 0 72 64 256 64 144 0 160-72 224-72Z" style="" fill="#72baaa" data-original="#72baaa" class=""></path><path d="M368 176v48c0-25.64-32-25.64-32 0-32.05 0-8-32-32-48Z" style="" fill="#f57a08" data-original="#f57a08" class=""></path><path d="M184 424q-24 24-24 72H96c0-53.75 18.75-83.75 41.42-102.35Z" style="" fill="#537ec2" data-original="#537ec2" class=""></path><path d="M368 224v16c0 80-88 72-88 104 0-32.05 56-35.13 56-80 17.43-7 32-19.31 32-40Z" style="" fill="#f57a08" data-original="#f57a08" class=""></path><ellipse cx="236.649" cy="294.709" rx="9.615" ry="16.025" style="" transform="rotate(-28.072 236.65 294.71)" fill="#e34e03" data-original="#e34e03"></ellipse><path d="M295.27 360.5a79.844 79.844 0 0 1-94.55 0c6.25-3.09 11-6.25 13.44-10.17a64.001 64.001 0 0 0 67.67-.01c2.43 3.92 7.19 7.09 13.44 10.18Z" style="" fill="#435e99" data-original="#435e99" class=""></path><circle cx="128" cy="472" r="8" style="" fill="#b1cdb4" data-original="#b1cdb4" class=""></circle><circle cx="160" cy="432" r="8" style="" fill="#b1cdb4" data-original="#b1cdb4" class=""></circle><circle cx="192" cy="392" r="8" style="" fill="#b1cdb4" data-original="#b1cdb4" class=""></circle><circle cx="216" cy="432" r="8" style="" fill="#b1cdb4" data-original="#b1cdb4" class=""></circle><circle cx="248" cy="392" r="8" style="" fill="#b1cdb4" data-original="#b1cdb4" class=""></circle><circle cx="272" cy="432" r="8" style="" fill="#b1cdb4" data-original="#b1cdb4" class=""></circle><circle cx="304" cy="392" r="8" style="" fill="#b1cdb4" data-original="#b1cdb4" class=""></circle><circle cx="328" cy="432" r="8" style="" fill="#b1cdb4" data-original="#b1cdb4" class=""></circle><path d="M160 128c-32 0-32 56 0 56h208c32 0 32-56 0-56Z" style="" fill="#435e99" data-original="#435e99" class=""></path><path d="M400 168s-29.2-14.6-53.44-40H160c0-64 48-104 120-104s120 64 120 144Z" style="" fill="#537ec2" data-original="#537ec2" class=""></path><circle cx="176" cy="88" r="8" style="" fill="#b1cdb4" data-original="#b1cdb4" class=""></circle><circle cx="208" cy="64" r="8" style="" fill="#b1cdb4" data-original="#b1cdb4" class=""></circle><circle cx="240" cy="88" r="8" style="" fill="#b1cdb4" data-original="#b1cdb4" class=""></circle><circle cx="272" cy="64" r="8" style="" fill="#b1cdb4" data-original="#b1cdb4" class=""></circle><circle cx="304" cy="88" r="8" style="" fill="#b1cdb4" data-original="#b1cdb4" class=""></circle><circle cx="240" cy="40" r="8" style="" fill="#b1cdb4" data-original="#b1cdb4" class=""></circle><circle cx="304" cy="40" r="8" style="" fill="#b1cdb4" data-original="#b1cdb4" class=""></circle><circle cx="336" cy="64" r="8" style="" fill="#b1cdb4" data-original="#b1cdb4" class=""></circle><circle cx="368" cy="88" r="8" style="" fill="#b1cdb4" data-original="#b1cdb4" class=""></circle><circle cx="272" cy="112" r="8" style="" fill="#b1cdb4" data-original="#b1cdb4" class=""></circle><circle cx="208" cy="112" r="8" style="" fill="#b1cdb4" data-original="#b1cdb4" class=""></circle><path d="M224 224c16 0 8-24 40-24 24 0 32 16 32 32s-8 32-32 32c-32 0-24-24-40-24s-8 24-40 24c-24 0-32-16-32-32s8-32 32-32c32 0 24 24 40 24Z" style="" fill="#0a4b69" data-original="#0a4b69"></path><circle cx="368" cy="136" r="8" style="" fill="#b1cdb4" data-original="#b1cdb4" class=""></circle><circle cx="400" cy="168" r="24" style="" fill="#e7f2da" data-original="#e7f2da"></circle><path d="M233.925 311.337a14.377 14.377 0 0 0 7.336 2.213 10.15 10.15 0 0 0 4.812-1.172c6.736-3.593 7.873-14.168 2.59-24.076-5.286-9.906-14.702-14.853-21.437-11.261-6.736 3.593-7.873 14.168-2.59 24.075a26.363 26.363 0 0 0 9.289 10.22ZM230.99 284.1a2.276 2.276 0 0 1 1.077-.239c2.416 0 6.59 2.682 9.536 8.206 3.454 6.477 2.724 12.175.704 13.252-.948.505-2.545.192-4.267-.842a18.565 18.565 0 0 1-6.346-7.125c-3.454-6.477-2.724-12.175-.704-13.252ZM128 460a12 12 0 1 0 12 12 12.013 12.013 0 0 0-12-12Zm0 16a4 4 0 1 1 4-4 4.004 4.004 0 0 1-4 4ZM192 404a12 12 0 1 0-12-12 12.013 12.013 0 0 0 12 12Zm0-16a4 4 0 1 1-4 4 4.004 4.004 0 0 1 4-4ZM236 392a12 12 0 1 0 12-12 12.013 12.013 0 0 0-12 12Zm12-4a4 4 0 1 1-4 4 4.004 4.004 0 0 1 4-4ZM284 432a12 12 0 1 0-12 12 12.013 12.013 0 0 0 12-12Zm-12 4a4 4 0 1 1 4-4 4.004 4.004 0 0 1-4 4ZM316 392a12 12 0 1 0-12 12 12.013 12.013 0 0 0 12-12Zm-16 0a4 4 0 1 1 4 4 4.004 4.004 0 0 1-4-4ZM208 76a12 12 0 1 0-12-12 12.013 12.013 0 0 0 12 12Zm0-16a4 4 0 1 1-4 4 4.004 4.004 0 0 1 4-4ZM240 100a12 12 0 1 0-12-12 12.013 12.013 0 0 0 12 12Zm0-16a4 4 0 1 1-4 4 4.004 4.004 0 0 1 4-4ZM272 76a12 12 0 1 0-12-12 12.013 12.013 0 0 0 12 12Zm0-16a4 4 0 1 1-4 4 4.004 4.004 0 0 1 4-4ZM304 100a12 12 0 1 0-12-12 12.013 12.013 0 0 0 12 12Zm0-16a4 4 0 1 1-4 4 4.004 4.004 0 0 1 4-4ZM336 76a12 12 0 1 0-12-12 12.013 12.013 0 0 0 12 12Zm0-16a4 4 0 1 1-4 4 4.004 4.004 0 0 1 4-4ZM284 112a12 12 0 1 0-12 12 12.013 12.013 0 0 0 12-12Zm-12 4a4 4 0 1 1 4-4 4.004 4.004 0 0 1-4 4ZM220 112a12 12 0 1 0-12 12 12.013 12.013 0 0 0 12-12Zm-12 4a4 4 0 1 1 4-4 4.004 4.004 0 0 1-4 4ZM154.828 149.172a4 4 0 0 0-5.656 5.656l8 8a4 4 0 0 0 5.656-5.656ZM168 140a4 4 0 0 0-4 4v8a4 4 0 0 0 8 0v-8a4 4 0 0 0-4-4ZM194.828 149.172a4 4 0 0 0-5.656 5.656l8 8a4 4 0 0 0 5.656-5.656ZM202.828 141.172a4 4 0 0 0-5.656 5.656l8 8a4 4 0 0 0 5.656-5.656ZM242.828 149.172a4 4 0 0 0-5.656 5.656l8 8a4 4 0 0 0 5.656-5.656ZM256 140a4 4 0 0 0-4 4v8a4 4 0 0 0 8 0v-8a4 4 0 0 0-4-4ZM298.828 141.172a3.999 3.999 0 0 0-5.656 0l-8 8a4 4 0 1 0 5.656 5.656l8-8a3.999 3.999 0 0 0 0-5.656ZM304 156h-8a4 4 0 0 0 0 8h8a4 4 0 0 0 0-8ZM346.828 141.172a3.999 3.999 0 0 0-5.656 0l-8 8a4 4 0 1 0 5.656 5.656l8-8a3.999 3.999 0 0 0 0-5.656ZM349.172 149.172l-8 8a4 4 0 1 0 5.656 5.656l8-8a4 4 0 0 0-5.656-5.656Z" fill="#000000" data-original="#000000" class="hovered-path"></path><path d="M426.63 394.63c-11.45 7.36-23.25 14.94-37.72 21.91a111.729 111.729 0 0 0-14.75-19.34c-19.2-20.18-42.38-29.83-61.01-37.59C300.21 354.23 288 349.14 288 344a8.051 8.051 0 0 1 1.88-5.18c12.06 1.21 25.34 2.69 38.22 4.13 38.01 4.24 81.1 9.05 111.9 9.05 16.71 0 30.31-8.22 38.3-23.16 15.13-28.27 10.31-79.89-11.89-129.37 32.4-40.25 33.52-80.03 23.51-104.2C481.81 75.69 466.14 64 448 64c-17.09 0-40.71 2.77-68.06 6.04-2.15-3.16-4.4-6.2-6.72-9.07C349.8 31.97 316.69 16 280 16c-52.89 0-94.38 20.81-114.6 57.26-6.12-.77-12.14-1.55-18.69-2.4C119.65 67.33 94.09 64 72 64c-25.91 0-40.46 4.63-48.65 15.48-9.45 12.53-9.18 31.23.96 66.72 10.42 36.47 18.1 67.72 21.59 101.1a180.674 180.674 0 0 0-9.67 18.39c-13.74 30.43-11.38 49.47-6.99 60.09C36.45 343.18 53.53 352 80 352c47.47 0 84.18-5.62 113.68-10.13 4.51-.69 9.13-1.4 13.68-2.06A12.202 12.202 0 0 1 208 344c0 5.14-12.21 10.23-25.15 15.61-18.63 7.76-41.81 17.41-61.01 37.59q-2.46 2.595-4.79 5.37C95.61 388.6 73.32 376 16.02 376H16v12c56.186 0 75.517 12.159 97.194 26.384a112.15 112.15 0 0 0-11.13 21.403l-1.003-.657-.084-.056C80.578 421.68 65.84 412 16 412v12h.06c46.19 0 59.03 8.43 78.33 21.11.07.04.15.09.22.14C90.17 460.3 87.99 476.97 88 496h12c0-88.888 52.637-110.808 87.467-125.312 4.589-1.91 8.933-3.72 12.865-5.57a83.786 83.786 0 0 0 95.336 0c3.932 1.85 8.276 3.66 12.865 5.57 22.551 9.391 53.12 22.133 71.367 54.277a227.105 227.105 0 0 1-41.34 12.731 12.006 12.006 0 1 0-18.574 3.21A350.116 350.116 0 0 1 272 444c-18.231 0-34.683-.632-49.539-1.904a11.998 11.998 0 1 0-14.886-1.563 274.025 274.025 0 0 1-28.074-4.889 64.197 64.197 0 0 1 7.327-8.816 4 4 0 0 0-5.656-5.656 72.607 72.607 0 0 0-9.197 11.33c.006-.168.025-.333.025-.502a12.023 12.023 0 1 0-5.404 10.014C159.568 456.635 156 474.679 156 496h12a155.626 155.626 0 0 1 .967-17.719C196.883 484.816 230.685 488 272 488c98.15 0 145.808-30.638 180.605-53.009C473.092 421.822 482.71 416 496 416v-12c-16.637 0-27.929 6.784-49.883 20.897C412.57 446.464 366.625 476 272 476c-42.726 0-77.1-3.46-104.947-10.553a89.08 89.08 0 0 1 8.086-22.628C200.275 448.99 231.997 452 272 452c87.575 0 128.364-26.222 161.139-47.291C454.613 390.904 471.575 380 496 380v-12.01c-27.93-.04-47.16 12.36-69.37 26.64ZM328 428a4 4 0 1 1-4 4 4.004 4.004 0 0 1 4-4Zm-112 0a4 4 0 1 1-4 4 4.004 4.004 0 0 1 4-4Zm-56 8a4 4 0 1 1 4-4 4.004 4.004 0 0 1-4 4Zm52.01-194.907a15.571 15.571 0 0 0-2.85 4.701q-.33.536-.653 1.066C204.57 253.32 200.499 260 184 260c-24.362 0-28-17.543-28-28s3.638-28 28-28c16.499 0 20.57 6.68 24.507 13.14C211.609 222.23 215.126 228 224 228s12.39-5.77 15.493-10.86C243.43 210.68 247.501 204 264 204c24.362 0 28 17.543 28 28s-3.638 28-28 28c-16.499 0-20.57-6.68-24.507-13.14C236.391 241.77 232.874 236 224 236a15.44 15.44 0 0 0-11.99 5.093Zm-171.68 80.09c-4.935-11.914-2.509-29.87 6.833-50.559a184.676 184.676 0 0 1 35.665-51.796 4 4 0 0 0-5.656-5.656 183.28 183.28 0 0 0-20.296 24.612c-3.39-26.878-9.738-55.362-21.03-94.883-8.723-30.53-9.594-47.337-2.913-56.194C38.519 79.303 50.567 76 72 76c21.317 0 46.513 3.283 73.188 6.759 6.14.8 12.447 1.62 18.867 2.425a110.306 110.306 0 0 0-7.996 39.086c-12.366 1.665-20.102 11.13-22.886 22.222C120.208 142.187 105.043 140 88 140a4 4 0 0 0 0 8c16.802 0 31.592 2.204 44.027 6.549q-.026.725-.027 1.451c0 14.704 8.23 29.564 24 31.722v19.516c-5.19 6.088-8 14.475-8 24.762a44.332 44.332 0 0 0 2.35 14.821c-30.461 6.334-55.31 21.09-56.408 21.75a4 4 0 1 0 4.116 6.859c.263-.158 25.896-15.39 56.011-21.2a29.319 29.319 0 0 0 1.936 2.538c.229 50.869 22.956 61.671 39.575 69.565a166.64 166.64 0 0 1 4.837 2.374c-2.79.42-5.629.853-8.549 1.3C162.771 334.459 126.56 340 80 340c-21.151 0-34.498-6.331-39.67-18.816ZM244 40a4 4 0 1 1-4-4 4.004 4.004 0 0 1 4 4Zm-48.396 15.037a104.422 104.422 0 0 1 33.002-18.782A12 12 0 1 0 247.9 30.99 167.031 167.031 0 0 1 280 28a110.005 110.005 0 0 1 18.197 1.503 12.008 12.008 0 1 0 15.835 3.931c22.336 7.443 41.432 22.259 55.566 42.685a11.994 11.994 0 1 0 9.58 16.216 159.673 159.673 0 0 1 14.843 48.314 28.024 28.024 0 0 0-15.49 9.402 226.371 226.371 0 0 1-4.81-3.505 11.998 11.998 0 1 0-17.122-14.27c-9.233-8.618-18.246-18.796-25.17-30.334a4 4 0 0 0-6.859 4.116A134.178 134.178 0 0 0 337.597 124H164.073a105.597 105.597 0 0 1 4.238-26.798 11.992 11.992 0 1 0 9.32-21.078 87.805 87.805 0 0 1 17.973-21.087ZM308 40a4 4 0 1 1-4-4 4.004 4.004 0 0 1 4 4Zm64 48a4 4 0 1 1-4-4 4.004 4.004 0 0 1 4 4Zm48 80a20 20 0 1 1-20-20 20.022 20.022 0 0 1 20 20Zm-56-32a4 4 0 1 1 4 4 4.004 4.004 0 0 1-4-4ZM176 84a4 4 0 1 1-4 4 4.004 4.004 0 0 1 4-4Zm-16 96c-13.741 0-20-12.44-20-24s6.259-24 20-24h184.898a211.001 211.001 0 0 0 29.416 24.868 27.941 27.941 0 0 0-.044 22.165A19.864 19.864 0 0 1 368 180Zm204 8v17.083a18.994 18.994 0 0 0-12-4.312c-8.99 0-18.08 6.528-19.733 19.06-10.137-1.02-10.64-6.647-11.547-16.849-.422-4.733-.89-9.914-2.635-14.982Zm8-.272a26.128 26.128 0 0 0 6.55-1.757 27.986 27.986 0 1 0 37.981-40.551 71.307 71.307 0 0 0 11.046-15.63 4 4 0 1 0-7.154-3.579 64.97 64.97 0 0 1-11.223 15.35 27.81 27.81 0 0 0-7.174-1.48c-3.14-21.853-9.817-41.503-19.354-58.277C409.086 78.646 431.885 76 448 76c13.116 0 24.642 8.922 30.832 23.865 15.488 37.394-8.452 80.099-33.66 105.307a4 4 0 1 0 5.656 5.656q2.662-2.662 5.116-5.334c20.736 46.918 25.158 96.781 10.267 120.28C460.229 335.212 451.409 340 440 340c-30.128 0-72.868-4.771-110.576-8.98-10.922-1.22-21.396-2.388-31.285-3.417 3.713-2.091 8.072-4.245 12.995-6.627 19.329-9.357 44.028-21.32 55.073-48.616 10.644 4.054 18.644 10.284 22.215 17.429a4 4 0 1 0 7.156-3.578c-5.84-11.683-18.088-18.154-26.792-21.434A90.732 90.732 0 0 0 372 240Zm-63.315 125.545c14.514-10.665 30.145-23.034 31.253-46.586 10.3-4.496 18.207-10.333 23.594-17.332-3.863 38.667-31.706 52.708-54.847 63.918Zm-109.672 5.833c-14.729-6.995-32.848-15.622-34.826-55.681 5.417 2.99 12.08 4.575 19.813 4.575 13.583 0 20.876-4.11 25.519-8.95C211.814 264.1 216.69 268 224 268a4 4 0 0 0 0-8c-5.905 0-8-4.31-8-8a8.484 8.484 0 0 1 1.99-5.593A7.654 7.654 0 0 1 224 244c4.204 0 5.693 2.153 8.662 7.023C237.028 258.188 243.01 268 264 268c22.542 0 36-13.458 36-36s-13.458-36-36-36c-20.991 0-26.972 9.812-31.338 16.977-2.969 4.87-4.458 7.023-8.662 7.023s-5.693-2.153-8.662-7.023C210.972 205.812 204.99 196 184 196c-7.823 0-14.548 1.624-20 4.682V188h145.46c2.322 4.84 2.815 10.345 3.291 15.691C313.715 214.521 314.915 228 336 228a4 4 0 0 0 4-4c0-10.52 6.027-15.23 12-15.23a10.975 10.975 0 0 1 8.08 3.542c2.565 2.739 3.92 6.78 3.92 11.688 0 16.218-9.922 28.427-29.491 36.288A4 4 0 0 0 332 264c0 22.29-15.19 33.41-29.88 44.166C289.278 317.569 276 327.292 276 344a15.99 15.99 0 0 0 .684 4.703 60.025 60.025 0 0 1-57.368 0A15.99 15.99 0 0 0 220 344c0-14.926-10.669-19.993-20.987-24.894ZM248 372a75.255 75.255 0 0 1-39.604-11.16 33.83 33.83 0 0 0 6.767-5.293 68.01 68.01 0 0 0 65.674 0 33.823 33.823 0 0 0 6.767 5.293A75.253 75.253 0 0 1 248 372Z" fill="#000000" data-original="#000000" class="hovered-path"></path></g></g></svg>