<svg width="100" height="100" viewBox="0 0 100 100" fill="none" xmlns="http://www.w3.org/2000/svg">
<g clip-path="url(#clip0_128_15)">
<path d="M49.0842 48.1703C55.7018 48.1703 61.4322 45.7967 66.1144 41.1137C70.7966 36.4317 73.1701 30.7028 73.1701 24.0845C73.1701 17.4681 70.7966 11.7386 66.1137 7.05486C61.4307 2.37343 55.701 0 49.0842 0C42.4657 0 36.7366 2.37343 32.0546 7.05564C27.3726 11.7378 24.9982 17.4675 24.9982 24.0845C24.9982 30.7028 27.3724 36.4325 32.0554 41.1147C36.7384 45.7961 42.468 48.1703 49.0842 48.1703ZM91.228 76.8948C91.0929 74.9464 90.8198 72.8206 90.4177 70.5763C90.0118 68.3148 89.4894 66.1771 88.8636 64.2232C88.2175 62.2037 87.3386 60.2095 86.2523 58.2982C85.1245 56.3146 83.8001 54.5873 82.3138 53.166C80.7597 51.6791 78.857 50.4836 76.6566 49.6113C74.464 48.7441 72.0339 48.3047 69.4347 48.3047C68.4138 48.3047 67.4267 48.7234 65.5201 49.9648C64.1648 50.8474 62.8055 51.7237 61.4422 52.5937C60.1322 53.4285 58.3576 54.2105 56.1656 54.9185C54.0272 55.6105 51.8559 55.9615 49.7127 55.9615C47.5698 55.9615 45.3991 55.6105 43.2583 54.9185C41.0688 54.2111 39.2942 53.4293 37.9856 52.5945C36.4681 51.6248 35.095 50.7398 33.904 49.9639C31.9997 48.7227 31.0116 48.3037 29.9909 48.3037C27.3908 48.3037 24.9617 48.744 22.7697 49.6123C20.5709 50.4828 18.6674 51.6783 17.1117 53.1668C15.6264 54.5888 14.3012 56.3152 13.175 58.2982C12.0895 60.2093 11.2106 62.2029 10.5635 64.224C9.93849 66.1779 9.41603 68.3148 9.01017 70.5763C8.60802 72.8177 8.33498 74.944 8.19982 76.8972C8.06537 78.8626 7.99873 80.8322 8.00002 82.8022C8.00002 88.0223 9.65939 92.2481 12.9316 95.3647C16.1635 98.4402 20.4396 100 25.6398 100H73.7904C78.9906 100 83.2652 98.441 86.4978 95.3649C89.7708 92.2504 91.4302 88.0239 91.4302 82.8014C91.4294 80.7866 91.3616 78.7991 91.228 76.8948Z" fill="black"/>
</g>
<defs>
<clipPath id="clip0_128_15">
<rect width="100" height="100" fill="white"/>
</clipPath>
</defs>
</svg>
