<svg xmlns="http://www.w3.org/2000/svg" version="1.1" xmlns:xlink="http://www.w3.org/1999/xlink" xmlns:svgjs="http://svgjs.com/svgjs" width="512" height="512" x="0" y="0" viewBox="0 0 32 32" style="enable-background:new 0 0 512 512" xml:space="preserve" class=""><g><path d="M29.8 14.5c0-2.3-1.6-4.3-3.8-4.8V4.5c0-.9-.9-1.5-1.7-1.2L13.7 7l-1.5.2v13.3l1.5.2 10.6 3.7c.8.3 1.7-.3 1.7-1.2v-3.9c2.2-.5 3.8-2.5 3.8-4.8zM26 16.7v-4.3c.7.4 1.3 1.2 1.3 2.2 0 .8-.5 1.6-1.3 2.1zM13.3 23.2h-.1L6 22.3l1 4.1c.3 1.1 1.3 1.9 2.4 1.9h3.3c.8 0 1.4-.7 1.2-1.5zM9.8 7.5 5.6 8c-1.9.2-3.3 1.8-3.3 3.7V16c0 1.9 1.4 3.5 3.3 3.7l4.2.5z" fill="#000000" data-original="#000000" class=""></path></g></svg>