<svg xmlns="http://www.w3.org/2000/svg" version="1.1" xmlns:xlink="http://www.w3.org/1999/xlink" xmlns:svgjs="http://svgjs.com/svgjs" width="512" height="512" x="0" y="0" viewBox="0 0 512.228 512.228" style="enable-background:new 0 0 512 512" xml:space="preserve" class=""><g><path d="M413.333 39.447h-19.106V20.114c0-11.046-8.954-20-20-20s-20 8.954-20 20v19.333H158V20.114c0-11.046-8.954-20-20-20s-20 8.954-20 20v19.333H98.895C44.364 39.447 0 83.811 0 138.341v274.878c0 54.531 44.364 98.895 98.895 98.895h314.439c54.53 0 98.894-44.364 98.894-98.895V138.341c0-54.53-44.364-98.894-98.895-98.894zm-314.438 40H118v39c0 11.046 8.954 20 20 20s20-8.954 20-20v-39h196.228v39c0 11.046 8.954 20 20 20s20-8.954 20-20v-39h19.106c32.474 0 58.894 26.42 58.894 58.894v19.106H40v-19.106c0-32.474 26.42-58.894 58.895-58.894zm314.438 392.667H98.895C66.42 472.114 40 445.694 40 413.219V197.447h432.228v215.772c0 32.475-26.42 58.895-58.895 58.895zm-235.666-196c0 11.046-8.954 20-20 20h-39.333c-11.046 0-20-8.954-20-20s8.954-20 20-20h39.333c11.045 0 20 8.954 20 20zm236.228 0c0 11.046-8.954 20-20 20h-39.333c-11.046 0-20-8.954-20-20s8.954-20 20-20h39.333c11.045 0 20 8.954 20 20zm-118.228 0c0 11.046-8.954 20-20 20h-39.333c-11.046 0-20-8.954-20-20s8.954-20 20-20h39.333c11.045 0 20 8.954 20 20zm-118 118c0 11.046-8.954 20-20 20h-39.333c-11.046 0-20-8.954-20-20s8.954-20 20-20h39.333c11.045 0 20 8.954 20 20zm236.228 0c0 11.046-8.954 20-20 20h-39.333c-11.046 0-20-8.954-20-20s8.954-20 20-20h39.333c11.045 0 20 8.954 20 20zm-118.228 0c0 11.046-8.954 20-20 20h-39.333c-11.046 0-20-8.954-20-20s8.954-20 20-20h39.333c11.045 0 20 8.954 20 20z" fill="#000000" data-original="#000000" class=""></path></g></svg>