<svg xmlns="http://www.w3.org/2000/svg" version="1.1" xmlns:xlink="http://www.w3.org/1999/xlink" xmlns:svgjs="http://svgjs.com/svgjs" width="512" height="512" x="0" y="0" viewBox="0 0 478 478" style="enable-background:new 0 0 512 512" xml:space="preserve" class=""><g><path d="M119.5 187.75H17.1c-9.4 0-17 7.6-17.1 17.1v256c0 9.5 7.7 17.1 17.1 17.1h102.4c9.5 0 17.1-7.7 17.1-17.1v-256c0-9.5-7.7-17.1-17.1-17.1zM290.2.05H187.8c-9.4 0-17.1 7.6-17.1 17v443.8c0 9.5 7.7 17.1 17.1 17.1h102.4c9.5 0 17.1-7.7 17.1-17.1V17.15c0-9.5-7.7-17.1-17.1-17.1zM460.9 136.55H358.5c-9.5 0-17.1 7.6-17.1 17.1v307.2c0 9.5 7.7 17.1 17.1 17.1h102.4c9.5 0 17.1-7.7 17.1-17.1v-307.2c0-9.5-7.7-17.1-17.1-17.1z" fill="#000000" data-original="#000000" class=""></path></g></svg>