<svg xmlns="http://www.w3.org/2000/svg" version="1.1" xmlns:xlink="http://www.w3.org/1999/xlink" xmlns:svgjs="http://svgjs.com/svgjs" width="512" height="512" x="0" y="0" viewBox="0 0 559.393 559.393" style="enable-background:new 0 0 512 512" xml:space="preserve" class=""><g><path fill="#d6d6d4" d="m260.755 25.633 41.051 14.958-137.042 376.112-41.051-14.958c-5.345-1.948-8.1-7.86-6.152-13.205L247.549 31.785c1.948-5.345 7.86-8.1 13.206-6.152z" data-original="#d6d6d4" class=""></path><path fill="#338fd8" d="m301.806 40.591 235.599 85.843c17.343 6.319 26.279 25.501 19.96 42.843l-114.159 313.31c-6.319 17.343-25.501 26.279-42.843 19.96l-235.599-85.843z" data-original="#338fd8"></path><path fill="#d6d6d4" d="m337.032 133.357 145.128 52.879c9.231 3.363 13.988 13.573 10.624 22.805l-30.768 84.442c-3.363 9.231-13.573 13.988-22.805 10.624l-145.128-52.879c-9.231-3.363-13.988-13.573-10.624-22.805l30.768-84.442c3.364-9.23 13.573-13.987 22.805-10.624z" data-original="#d6d6d4" class=""></path><path fill="#707070" d="M417.731 217.598a8.585 8.585 0 0 1-2.922-.516l-46.064-16.784a8.526 8.526 0 0 1 5.844-16.018l46.064 16.784a8.525 8.525 0 0 1-2.922 16.534zM417.09 258.259a8.59 8.59 0 0 1-2.922-.516l-71.09-25.9a8.526 8.526 0 0 1 5.844-16.018l71.09 25.9a8.524 8.524 0 0 1-2.922 16.534z" data-original="#707070" class=""></path><path fill="#d6d6d4" d="M10.301 134.084h43.691v400.301H10.301C4.612 534.386 0 529.774 0 524.085v-379.7c0-5.689 4.612-10.301 10.301-10.301z" data-original="#d6d6d4" class=""></path><path fill="#feb431" d="M53.993 134.084h250.751c18.458 0 33.421 14.963 33.421 33.421v333.459c0 18.458-14.963 33.421-33.421 33.421H53.993z" data-original="#feb431" class=""></path><path fill="#d6d6d4" d="M118.848 209.187h154.461c9.825 0 17.789 7.965 17.789 17.789v89.873c0 9.825-7.965 17.789-17.789 17.789H118.848c-9.825 0-17.789-7.965-17.789-17.789v-89.873c0-9.825 7.964-17.789 17.789-17.789z" data-original="#d6d6d4" class=""></path><g fill="#707070"><path d="M220.587 261.223h-49.02a8.525 8.525 0 0 1 0-17.05h49.02a8.525 8.525 0 0 1 0 17.05zM233.907 299.653h-75.661a8.525 8.525 0 0 1 0-17.05h75.661a8.525 8.525 0 0 1 0 17.05z" fill="#707070" data-original="#707070" class=""></path></g></g></svg>