<svg xmlns="http://www.w3.org/2000/svg" version="1.1" xmlns:xlink="http://www.w3.org/1999/xlink" xmlns:svgjs="http://svgjs.com/svgjs" width="512" height="512" x="0" y="0" viewBox="0 0 512 512" style="enable-background:new 0 0 512 512" xml:space="preserve" class=""><g><path fill="#d0ddf8" d="M362.263 383.228c8.58 10.38 13.74 23.69 13.74 38.21 0 33.14-26.86 60-60 60-14.52 0-27.83-5.16-38.21-13.74l37.877-55.533zM286.003 8.938c-29.4 0-54.4 18.8-63.66 45.02l50.06 34.54 35.8 65 31.32-35.94c8.77-11.38 13.98-25.65 13.98-41.12 0-37.281-30.22-67.5-67.5-67.5z" data-original="#d0ddf8"></path><path fill="#ffbb99" d="M87.753 51.378c-19.19.04-34.73 15.6-34.72 34.8l-.01 115.74a50.703 50.703 0 0 1-14.87 35.9c-39.53 39.54-39.53 103.64 0 143.18 15.88 15.87 11.06 11.05 26.97 26.96l24.97-167.31 32.54-150.48v-4.01c0-19.175-15.577-34.861-34.88-34.78zM268.513 56.577c-12.64-12.59-32.54-13.46-46.17-2.62-2.936 2.315-.137-.082-63.51 63.18l.87 74.94 65.7-57.579 53.12-49.241c1.196-10.258-2.157-20.826-10.01-28.68z" data-original="#ffbb99"></path><path fill="#ffd9b3" d="m421.603 323.888-149.52 149.52c-39.54 39.54-103.64 39.54-143.17 0l-53.69-53.69c-5.84-5.84-9.16-10.57-10.07-11.72l-.01-.02-.02-.02c-29.08-39.61-25.71-95.59 10.1-131.4a50.684 50.684 0 0 0 11-16.48c2.53-6.1 3.87-12.7 3.87-19.43l.01-115.74c-.01-18.66 14.62-33.6 32.53-34.74 16.81-1.17 32.36 10.19 36.2 26.97v.01c1.53 6.69.58 5.17.87 74.93l96.72-96.72c13.64-13.66 35.67-13.49 49.16-.06 13.77 13.78 13.53 35.79.05 49.27l17.84-17.84c16.59-16.59 43.28-11.89 54.41 6.6 1.46 2.42 2.65 5.08 3.52 7.96l.01.01-.97 10.67-8.35 92.39z" data-original="#ffd9b3" class=""></path><g fill="#fb9"><path d="M220.29 219.088a7.5 7.5 0 0 0 10.607 0l76.885-76.886c6.778-8.139 9.309-18.701 7.447-28.66l-94.94 94.94a7.5 7.5 0 0 0 .001 10.606zM381.413 141.297l-.97 10.67-105.14 105.14c-1.46 1.47-3.38 2.2-5.3 2.2s-3.84-.73-5.3-2.2a7.502 7.502 0 0 1 0-10.61l113.18-113.17c1.46 2.42 2.65 5.08 3.52 7.96zM313.921 306.319a7.501 7.501 0 0 0 10.607 0l53.088-53.088-2.48-9.733-2.365-6.636-58.85 58.85a7.5 7.5 0 0 0 0 10.607z" fill="#ffbb99" data-original="#ffbb99"></path></g><path fill="#e2e9f8" d="M483.273 306.987c-16.76 16.26-40.24 21.9-61.67 16.9-35.386-8.308-57.672-43.661-49.51-79.53 1.59-6.95-.06-14.34-4.82-19.65-23.34-26.05-9.84-69.81 14.14-83.41.38-.23.77-.44 1.16-.64 34.9-18.13 76.55 5.86 78.95 44.58.44 7.21 4.55 13.68 10.68 17.51 36.616 22.897 42.126 74.102 11.07 104.24z" data-original="#e2e9f8"></path></g></svg>