<svg xmlns="http://www.w3.org/2000/svg" version="1.1" xmlns:xlink="http://www.w3.org/1999/xlink" xmlns:svgjs="http://svgjs.com/svgjs" width="512" height="512" x="0" y="0" viewBox="0 0 511.999 511.999" style="enable-background:new 0 0 512 512" xml:space="preserve" class=""><g><path d="M483.573 375.929H90.405c-15.7 0-28.427-12.727-28.427-28.427V92.884c0-15.7 12.727-28.427 28.427-28.427h393.167c15.7 0 28.427 12.727 28.427 28.427v254.619c.001 15.699-12.726 28.426-28.426 28.426z" style="" fill="#2b84e9" data-original="#2b84e9" class=""></path><path d="M243.91 373.419h86.16v74.58h-86.16z" style="" fill="#363c44" data-original="#363c44"></path><path d="M243.91 373.419h86.16v19.943h-86.16zM243.91 431.399h86.16v14.08h-86.16z" style="" fill="#292e33" data-original="#292e33"></path><path d="M61.978 347.502c0 15.7 12.727 28.427 28.427 28.427h393.167c15.7 0 28.427-12.727 28.427-28.427v-59.164H61.978v59.164z" style="" fill="#555e6b" data-original="#555e6b" class=""></path><circle cx="472.68" cy="330.919" r="7.773" style="" fill="#49bc6e" data-original="#49bc6e"></circle><path d="M199.231 64.456H91.394c-15.7 0-28.427 12.727-28.427 28.427v254.618c0 15.7 12.727 28.427 28.427 28.427H199.23V64.456h.001z" style="" fill="#2676c6" data-original="#2676c6" class=""></path><circle cx="444.69" cy="330.919" r="7.773" style="" fill="#49bc6e" data-original="#49bc6e"></circle><circle cx="417.06" cy="330.919" r="7.773" style="" fill="#49bc6e" data-original="#49bc6e"></circle><path d="M62.967 288.338v59.164c0 15.7 12.727 28.427 28.427 28.427H199.23v-87.592H62.967v.001z" style="" fill="#434b56" data-original="#434b56"></path><path d="M155.845 476.962H13.115C5.872 476.962 0 471.09 0 463.846V48.152c0-7.243 5.872-13.115 13.115-13.115h142.729c7.243 0 13.115 5.872 13.115 13.115v415.695c.001 7.243-5.871 13.115-13.114 13.115z" style="" fill="#555e6b" data-original="#555e6b" class=""></path><path d="M364.424 476.962h-154.87a2.908 2.908 0 0 1-2.908-2.908v-12.408c0-8.927 7.237-16.164 16.164-16.164h128.358c8.927 0 16.164 7.237 16.164 16.164v12.408a2.908 2.908 0 0 1-2.908 2.908z" style="" fill="#363c44" data-original="#363c44"></path><circle cx="286.99" cy="329.189" r="15.182" style="" fill="#ffe92f" data-original="#ffe92f"></circle><path d="m49.828 392.566-19.356-96.779a9.502 9.502 0 0 0-1.898-4.073L0 255.999v199.198l47.663-54.512a9.503 9.503 0 0 0 2.165-8.119zM119.132 392.566l19.356-96.779a9.502 9.502 0 0 1 1.898-4.073l28.574-35.715v199.198l-47.663-54.512a9.503 9.503 0 0 1-2.165-8.119z" style="" fill="#2e343a" data-original="#2e343a"></path><path d="M66.552 454.334H48.199a7.773 7.773 0 1 1 0-15.546h18.352a7.773 7.773 0 0 1 7.773 7.773 7.772 7.772 0 0 1-7.772 7.773zM114.751 454.334H96.398a7.773 7.773 0 1 1 0-15.546h18.352a7.773 7.773 0 0 1 7.773 7.773 7.771 7.771 0 0 1-7.772 7.773z" style="" fill="#96abbc" data-original="#96abbc"></path><circle cx="82.45" cy="281.859" r="20.469" style="" fill="#ff7b05" data-original="#ff7b05"></circle><path d="M26.476 35.036 43.49 55.604a16.846 16.846 0 0 0 12.981 6.109h55.303c4.902 0 9.561-2.135 12.761-5.849l17.949-20.828H26.476z" style="" fill="#2e343a" data-original="#2e343a"></path><path d="M136.748 116.221H32.211a5.735 5.735 0 0 1-5.735-5.735v-15.4a5.735 5.735 0 0 1 5.735-5.735h104.537a5.735 5.735 0 0 1 5.735 5.735v15.4a5.734 5.734 0 0 1-5.735 5.735zM136.748 172.292H32.211a5.735 5.735 0 0 1-5.735-5.735v-15.4a5.735 5.735 0 0 1 5.735-5.735h104.537a5.735 5.735 0 0 1 5.735 5.735v15.4a5.735 5.735 0 0 1-5.735 5.735z" style="" fill="#707d8c" data-original="#707d8c"></path></g></svg>