<svg xmlns="http://www.w3.org/2000/svg" version="1.1" xmlns:xlink="http://www.w3.org/1999/xlink" xmlns:svgjs="http://svgjs.com/svgjs" width="512" height="512" x="0" y="0" viewBox="0 0 480 480" style="enable-background:new 0 0 512 512" xml:space="preserve" class=""><g><linearGradient id="b" x1="138.343" x2="309.657" y1="309.657" y2="138.343" gradientUnits="userSpaceOnUse"><stop offset="0" stop-color="#d1cdc7"></stop><stop offset=".336" stop-color="#d8d4cf"></stop><stop offset=".856" stop-color="#eae7e5"></stop><stop offset="1" stop-color="#f0eeec"></stop></linearGradient><linearGradient id="c" x1="-5.657" x2="261.657" y1="309.657" y2="42.343" gradientUnits="userSpaceOnUse"><stop offset="0" stop-color="#d1cdc7"></stop><stop offset=".41" stop-color="#d8d4cf"></stop><stop offset="1" stop-color="#e8e6e3"></stop></linearGradient><linearGradient id="d" x1="60" x2="196" y1="164" y2="28" gradientUnits="userSpaceOnUse"><stop offset="0" stop-color="#e0deda"></stop><stop offset=".336" stop-color="#e7e5e2"></stop><stop offset=".856" stop-color="#f9f8f8"></stop><stop offset="1" stop-color="#fff"></stop></linearGradient><linearGradient id="e" x1="99.172" x2="204.828" y1="91.172" y2="-14.485" gradientUnits="userSpaceOnUse"><stop offset="0" stop-color="#547fd2"></stop><stop offset=".293" stop-color="#5a87d6"></stop><stop offset=".745" stop-color="#6a9de0"></stop><stop offset="1" stop-color="#76ace7"></stop></linearGradient><linearGradient id="f" x1="19.172" x2="188.828" y1="334.485" y2="164.828" gradientUnits="userSpaceOnUse"><stop offset="0" stop-color="#7f9fdd"></stop><stop offset=".575" stop-color="#a2c6ef"></stop><stop offset=".586" stop-color="#a3c7ef"></stop><stop offset=".705" stop-color="#accbf0"></stop><stop offset=".9" stop-color="#c5d8f2"></stop><stop offset="1" stop-color="#d4dff4"></stop></linearGradient><linearGradient id="g" x1="239.305" x2="432.695" y1="381.997" y2="188.607" gradientUnits="userSpaceOnUse"><stop offset="0" stop-color="#ea5b60"></stop><stop offset=".147" stop-color="#eb6466"></stop><stop offset=".387" stop-color="#ef7d76"></stop><stop offset=".671" stop-color="#f5a28e"></stop><stop offset="1" stop-color="#f9c1b4"></stop></linearGradient><linearGradient id="a" x1="359.436" x2="399.981" y1="148.272" y2="107.728" gradientUnits="userSpaceOnUse"><stop offset="0" stop-color="#9ec645"></stop><stop offset=".166" stop-color="#a4c94d"></stop><stop offset=".424" stop-color="#b5d063"></stop><stop offset=".739" stop-color="#d0dd86"></stop><stop offset="1" stop-color="#eae9a9"></stop></linearGradient><linearGradient xlink:href="#a" id="h" x1="10.502" x2="146.21" y1="409.818" y2="274.111"></linearGradient><linearGradient id="i" x1="203.448" x2="355.272" y1="485.147" y2="333.324" gradientUnits="userSpaceOnUse"><stop offset="0" stop-color="#f5a83d"></stop><stop offset=".21" stop-color="#f6ad45"></stop><stop offset=".535" stop-color="#f7bc5b"></stop><stop offset=".933" stop-color="#fad47e"></stop><stop offset="1" stop-color="#fad985"></stop></linearGradient><g data-name="07-healthy"><g data-name="flat gradient"><path fill="url(#b)" d="M279.971 127.422a8.015 8.015 0 0 0-1.571-4.222l-48-64a8 8 0 0 0-12.8 0l-48 64a8.129 8.129 0 0 0-1.6 4.8v208a8 8 0 0 0 8 8h96a8 8 0 0 0 8-8V128c0-.195-.015-.386-.029-.578z" data-original="url(#b)" class=""></path><path fill="url(#c)" d="M231.013 67.849A8.2 8.2 0 0 0 232 64V16a8 8 0 0 0-8-8H80a8 8 0 0 0-8 8v48l-46.4 59.2A8.129 8.129 0 0 0 24 128v208a8 8 0 0 0 8 8h144a8 8 0 0 0 8-8V128l46.4-59.2c.211-.312.431-.618.613-.951z" data-original="url(#c)"></path><path fill="url(#d)" d="M231.013 67.849A8.2 8.2 0 0 0 232 64H72l-46.4 59.2A8.129 8.129 0 0 0 24 128h160l46.4-59.2c.211-.312.431-.618.613-.951z" data-original="url(#d)" class=""></path><path fill="url(#e)" d="M224 8H80a8 8 0 0 0-8 8v48h160V16a8 8 0 0 0-8-8z" data-original="url(#e)"></path><path fill="url(#f)" d="M24 192v144a8 8 0 0 0 8 8h144a8 8 0 0 0 8-8V160H24z" data-original="url(#f)" class=""></path><path fill="url(#g)" d="M420.216 181.472c-17.447-8.385-45.972-12.023-84.216 16.428-38.244-28.447-66.768-24.809-84.216-16.423C216.012 198.665 200 247.363 200 288c0 43.5 23.129 87.022 57.555 108.3 24.9 15.391 52.611 17.422 78.445 5.857a82.234 82.234 0 0 0 33.745 7.4c15.234 0 30.429-4.433 44.7-13.253C448.871 375.022 472 331.5 472 288c0-40.637-16.012-89.335-51.784-106.528z" data-original="url(#g)" class=""></path><path fill="#857a6b" d="m343.428 242.971-14.856-5.942c15.265-38.164 7.155-60.418-.689-81.939-7.954-21.823-16.178-44.388.962-78.668l14.31 7.156c-14.058 28.117-7.96 44.849-.239 66.033 8.459 23.211 18.048 49.52.512 93.36z" data-original="#857a6b" class=""></path><path fill="#ea5b60" d="M336 248a40.146 40.146 0 0 1-34.644-19.994l13.85-8.012a24.01 24.01 0 0 0 41.588 0l13.85 8.012A40.146 40.146 0 0 1 336 248z" data-original="#ea5b60"></path><path fill="url(#a)" d="M414.341 123.993a39.992 39.992 0 0 0-69.265 0 8 8 0 0 0 0 8.014 39.992 39.992 0 0 0 69.265 0 8 8 0 0 0 0-8.014z" data-original="url(#a)"></path><path fill="url(#h)" d="M152.488 342.229a321.769 321.769 0 0 0-8.3-45.244c-8.675-32.832-21-51.777-36.633-56.307-17.54-5.084-34.032-.43-42.012 11.858-3.9 6.008-9.961 20.888 3.184 44.462a108.809 108.809 0 0 0-18.8-1.9h-.3c-27.1 0-36.811 13.815-40.176 25.428-3.379 11.658-2.547 28.6 20.608 43.134a108.6 108.6 0 0 0 16.9 8.444c-23.713 12.892-26.552 28.7-26.467 35.869.175 14.651 11.621 27.4 29.16 32.486a28.668 28.668 0 0 0 8.017 1.1c14.415 0 32.211-9.751 53.049-29.1a321.652 321.652 0 0 0 31.209-33.793 7.994 7.994 0 0 0 1.376-2.694l8.908-30.736a7.985 7.985 0 0 0 .277-3.007z" data-original="url(#h)"></path><path fill="url(#i)" d="M431.666 410.773c-14.058-11.531-34.909-25.114-60.3-39.281-45.468-25.367-102-50.6-134.411-59.993-33.725-9.775-54.9-10.976-70.8-4.014-15.779 6.908-25.876 21.463-33.762 48.671s-7.138 44.907 2.5 59.181c9.714 14.386 28.249 24.695 61.975 34.47 32.415 9.395 93.674 18.3 145.66 21.181 12.107.67 23.488 1 33.956 1a318.51 318.51 0 0 0 38-1.951c24.567-3.032 37.474-9.5 40.619-20.351s-4.303-23.214-23.437-38.913z" data-original="url(#i)"></path><g fill="#f5a83d"><path d="m235.39 403.076 28.328-82.387a433.606 433.606 0 0 0-15.041-5.463l-28.418 82.648zM297.021 420.374 282.987 465.6a980.637 980.637 0 0 0 16.18 1.846l13.133-42.33zM393.571 432.091l12.715-39.627q-6.6-4.311-13.982-8.8L378.336 427.2z" fill="#f5a83d" data-original="#f5a83d"></path></g></g></g></g></svg>