<svg xmlns="http://www.w3.org/2000/svg" version="1.1" xmlns:xlink="http://www.w3.org/1999/xlink" xmlns:svgjs="http://svgjs.com/svgjs" width="512" height="512" x="0" y="0" viewBox="0 0 512 512" style="enable-background:new 0 0 512 512" xml:space="preserve" class="hovered-paths"><g><path fill="#c6d0da" d="M256 451.926c-92.528 0-167.807-75.277-167.807-167.807 0-92.529 75.278-167.806 167.807-167.806s167.806 75.277 167.806 167.806c0 92.53-75.277 167.807-167.806 167.807zm0-320.744c-84.33 0-152.938 68.608-152.938 152.937 0 84.33 68.608 152.938 152.938 152.938 84.329 0 152.937-68.608 152.937-152.938.001-84.329-68.607-152.937-152.937-152.937z" data-original="#c6d0da"></path><path fill="#784033" d="M137.207 63.804H99.959c-23.914 0-43.301 19.386-43.301 43.301v21.627l4 10.16h115.549l4-10.16v-21.927c0-23.749-19.251-43.001-43-43.001z" data-original="#784033"></path><path fill="#61362b" d="M137.207 63.804H99.58c-.409 0-.814.019-1.22.031 23.139.648 41.702 19.595 41.702 42.891v32.165h36.146l4-10.16v-21.927c-.001-23.748-19.252-43-43.001-43z" data-original="#61362b"></path><path fill="#5766cb" d="M233.595 335.991H3.27a3.27 3.27 0 0 1-3.27-3.27c0-54.177 43.919-98.096 98.095-98.096h40.674c54.177 0 98.095 43.919 98.095 98.096a3.268 3.268 0 0 1-3.269 3.27z" data-original="#5766cb"></path><path fill="#3d4fc3" d="M138.77 234.626H98.095c-.445 0-.888.011-1.332.017 53.562.714 96.764 44.347 96.764 98.079a3.27 3.27 0 0 1-3.27 3.27h43.338a3.27 3.27 0 0 0 3.27-3.27c0-54.178-43.919-98.096-98.095-98.096z" data-original="#3d4fc3"></path><path fill="#e2a770" d="M118.433 286.286c-23.935 0-43.338-19.403-43.338-43.338v-59.982h86.676v59.982c-.001 23.935-19.404 43.338-43.338 43.338z" data-original="#e2a770"></path><path fill="#d5985c" d="M139.144 182.965v59.983c0 20.02-13.578 36.86-32.025 41.837a43.382 43.382 0 0 0 11.313 1.501c23.935 0 43.338-19.403 43.338-43.338v-59.983z" data-original="#d5985c"></path><path fill="#e2a770" d="M192.333 147.043c-3.983-1.876-8.216-2.068-12.125.417v-18.729c0-13.686-11.095-24.781-24.781-24.781H81.439c-13.686 0-24.781 11.095-24.781 24.781v18.729c-3.909-2.486-8.142-2.293-12.125-.417-6.776 3.191-10.264 10.036-4.866 21.498 4.205 8.929 12.085 17.008 18.565 18.634a65.283 65.283 0 0 0 27.291 39.944l17.952 12.066a26.813 26.813 0 0 0 29.914 0l5.755-3.868 11.574-11.38s7.921-2.305 11.052-5.532a65.318 65.318 0 0 0 16.863-31.231c6.481-1.625 14.36-9.704 18.565-18.634 5.399-11.46 1.911-18.306-4.865-21.497z" data-original="#e2a770"></path><path fill="#d5985c" d="M192.333 147.043c-3.983-1.876-8.216-2.068-12.125.417v-18.729c0-13.686-11.095-24.781-24.781-24.781h-6.297v68.989a65.28 65.28 0 0 1-28.865 54.18l-17.371 11.676.584.393a26.809 26.809 0 0 0 29.91-.001l17.954-12.068a65.282 65.282 0 0 0 27.291-39.944c6.481-1.625 14.36-9.704 18.565-18.634 5.399-11.461 1.911-18.307-4.865-21.498z" data-original="#d5985c"></path><circle cx="92.969" cy="153.033" r="8.643" fill="#524798" data-original="#524798"></circle><circle cx="143.087" cy="153.033" r="8.643" fill="#524798" data-original="#524798"></circle><path fill="#e28086" d="M118.432 203.488c-7.69 0-14.765-2.657-19.413-7.29a7.433 7.433 0 0 1-.016-10.514 7.433 7.433 0 0 1 10.514-.016c1.366 1.361 4.521 2.951 8.915 2.951 4.396 0 7.55-1.589 8.915-2.951a7.435 7.435 0 0 1 10.499 10.529c-4.646 4.634-11.723 7.291-19.414 7.291z" data-original="#e28086"></path><path fill="#784033" d="M393.567 47.113c-56.158 0-101.683 45.525-101.683 101.682v149.667H495.25V148.796c0-56.158-45.525-101.683-101.683-101.683z" data-original="#784033"></path><path fill="#61362b" d="M393.567 47.113c-8.21 0-16.19.98-23.837 2.817 44.656 10.728 77.846 50.918 77.846 98.866v149.667h47.674V148.796c0-56.158-45.525-101.683-101.683-101.683z" data-original="#61362b"></path><path fill="#eaaadd" d="M508.73 335.991H278.405a3.27 3.27 0 0 1-3.27-3.27c0-54.177 43.919-98.096 98.096-98.096h40.674c54.177 0 98.095 43.919 98.095 98.096a3.27 3.27 0 0 1-3.27 3.27z" data-original="#eaaadd" class=""></path><path fill="#e490d0" d="M413.905 234.626H373.23c-.445 0-.888.011-1.332.017 53.562.714 96.764 44.347 96.764 98.078a3.27 3.27 0 0 1-3.27 3.27h43.338a3.27 3.27 0 0 0 3.27-3.27c0-54.176-43.919-98.095-98.095-98.095z" data-original="#e490d0"></path><path fill="#ffcbbe" d="M393.567 285.308c-23.935 0-43.338-19.403-43.338-43.338v-59.982h86.676v59.982c0 23.935-19.403 43.338-43.338 43.338z" data-original="#ffcbbe" class="hovered-path"></path><path fill="#eaac9d" d="M414.279 181.988v59.983c0 20.02-13.578 36.86-32.025 41.837a43.382 43.382 0 0 0 11.313 1.501c23.935 0 43.338-19.403 43.338-43.338v-59.983z" data-original="#eaac9d"></path><path fill="#ffcbbe" d="M432.484 110.871h-78.191c-12.624 0-22.858 10.234-22.858 22.858v35.305a65.47 65.47 0 0 0 28.948 54.337l18.004 12.101a26.89 26.89 0 0 0 30.001 0l5.89-3.959 10.006-10.288s9.466-3.389 12.62-6.647a65.472 65.472 0 0 0 18.437-45.545v-35.305c.001-12.623-10.233-22.857-22.857-22.857z" data-original="#ffcbbe" class="hovered-path"></path><path fill="#eaac9d" d="M432.484 110.871h-2.427v52.744a65.472 65.472 0 0 1-28.948 54.337l-18.005 12.102a26.847 26.847 0 0 1-7.553 3.512l2.837 1.907a26.889 26.889 0 0 0 30 .001l18.007-12.103a65.466 65.466 0 0 0 28.947-54.335v-35.311c0-12.626-10.234-22.854-22.858-22.854z" data-original="#eaac9d"></path><circle cx="368.104" cy="152.056" r="8.643" fill="#524798" data-original="#524798"></circle><circle cx="418.222" cy="152.056" r="8.643" fill="#524798" data-original="#524798"></circle><path fill="#d82e3d" d="M393.567 202.51c-7.69 0-14.765-2.657-19.413-7.29a7.433 7.433 0 0 1-.016-10.514 7.434 7.434 0 0 1 10.514-.016c1.366 1.361 4.521 2.952 8.915 2.952 4.396 0 7.55-1.589 8.915-2.951a7.436 7.436 0 0 1 10.5 10.529c-4.648 4.633-11.724 7.29-19.415 7.29z" data-original="#d82e3d"></path><path fill="#b1e4f9" d="M371.163 464.887H140.837a3.27 3.27 0 0 1-3.27-3.27c0-54.177 43.919-98.095 98.096-98.095h40.674c54.177 0 98.095 43.919 98.095 98.095a3.268 3.268 0 0 1-3.269 3.27z" data-original="#b1e4f9"></path><path fill="#90d8f9" d="M276.337 363.521h-40.674c-.445 0-.888.011-1.332.017 53.562.714 96.764 44.347 96.764 98.078a3.27 3.27 0 0 1-3.27 3.27h43.338a3.27 3.27 0 0 0 3.27-3.27c0-54.176-43.919-98.095-98.096-98.095z" data-original="#90d8f9"></path><path fill="#ffd064" d="M274.775 191.723h-37.249c-23.914 0-43.301 19.386-43.301 43.301v21.627l5 10.16h114.549l4-10.16v-21.927c.001-23.75-19.251-43.001-42.999-43.001z" data-original="#ffd064"></path><path fill="#ffc250" d="M274.775 191.723h-37.627c-.409 0-.814.019-1.22.031 23.139.648 41.702 19.595 41.702 42.891v32.165h36.146l4-10.16v-21.927c-.001-23.749-19.253-43-43.001-43z" data-original="#ffc250"></path><path fill="#c18678" d="M256 414.204c-23.935 0-43.338-19.403-43.338-43.338v-59.983h86.676v59.983c0 23.935-19.403 43.338-43.338 43.338z" data-original="#c18678" class=""></path><path fill="#b46e59" d="M276.712 310.884v59.983c0 20.02-13.578 36.86-32.025 41.837A43.382 43.382 0 0 0 256 414.205c23.935 0 43.338-19.403 43.338-43.338v-59.983z" data-original="#b46e59" class=""></path><path fill="#c18678" d="M329.9 274.962c-3.983-1.876-8.216-2.068-12.125.417V256.65c0-13.686-11.095-24.781-24.781-24.781h-73.987c-13.686 0-24.781 11.095-24.781 24.781v18.729c-3.909-2.486-8.142-2.293-12.125-.417-6.776 3.191-10.264 10.036-4.866 21.498 4.205 8.929 12.085 17.008 18.565 18.634a65.283 65.283 0 0 0 27.291 39.944l17.952 12.066a26.813 26.813 0 0 0 29.914 0l5.755-3.868 10.085-10.205s9.41-3.48 12.541-6.706a65.32 65.32 0 0 0 16.863-31.232c6.481-1.625 14.36-9.704 18.565-18.634 5.398-11.461 1.91-18.306-4.866-21.497z" data-original="#c18678" class=""></path><circle cx="230.537" cy="280.952" r="8.643" fill="#61362b" data-original="#61362b"></circle><path fill="#b46e59" d="M329.9 274.962c-3.983-1.876-8.216-2.068-12.125.417V256.65c0-13.686-11.095-24.781-24.781-24.781h-6.297v68.989a65.28 65.28 0 0 1-28.865 54.18l-17.371 11.676.584.393a26.809 26.809 0 0 0 29.91-.001l17.954-12.068a65.282 65.282 0 0 0 27.291-39.944c6.481-1.625 14.36-9.704 18.565-18.634 5.399-11.462 1.911-18.307-4.865-21.498z" data-original="#b46e59" class=""></path><circle cx="280.655" cy="280.952" r="8.643" fill="#61362b" data-original="#61362b"></circle><path fill="#904f40" d="M256 331.406c-7.69 0-14.766-2.657-19.413-7.289a7.433 7.433 0 0 1-.016-10.514 7.433 7.433 0 0 1 10.514-.016c1.366 1.361 4.52 2.951 8.915 2.951s7.549-1.589 8.915-2.951a7.434 7.434 0 1 1 10.498 10.53c-4.647 4.632-11.723 7.289-19.413 7.289z" data-original="#904f40" class=""></path></g></svg>