<svg xmlns="http://www.w3.org/2000/svg" version="1.1" xmlns:xlink="http://www.w3.org/1999/xlink" xmlns:svgjs="http://svgjs.com/svgjs" width="512" height="512" x="0" y="0" viewBox="0 0 32 32" style="enable-background:new 0 0 512 512" xml:space="preserve" class=""><g><g data-name="open file"><path fill="#4294ff" d="M30 13.12V27a3.009 3.009 0 0 1-3 3H5a3.009 3.009 0 0 1-3-3V13.12a3.015 3.015 0 0 1 1.42-2.56l3.11-1.65A.992.992 0 0 1 8 9.79v5.76l5.97 3.22L16 19.86l2.03-1.09L24 15.55V9.79a.992.992 0 0 1 1.47-.88l3.05 1.62A3.026 3.026 0 0 1 30 13.12z" data-original="#4294ff" class=""></path><path fill="#376cfb" d="M30 13.12v1.48l-13.53 7.28a.98.98 0 0 1-.94 0L2 14.6v-1.48a3.015 3.015 0 0 1 1.42-2.56l3.11-1.65A.992.992 0 0 1 8 9.79v5.76l8 4.31 8-4.31V9.79a.992.992 0 0 1 1.47-.88l3.05 1.62A3.026 3.026 0 0 1 30 13.12z" data-original="#376cfb" class=""></path><path fill="#2965ed" d="M25.79 30H5a3.009 3.009 0 0 1-3-3V13.12a2.989 2.989 0 0 1 1.17-2.38c.88 6.5 5 17.56 22.62 19.26z" data-original="#2965ed"></path><path fill="#376cfb" d="M30 26.48V27a3.009 3.009 0 0 1-3 3H5a3.009 3.009 0 0 1-3-3v-.52l10.92-7.65a1.017 1.017 0 0 1 1.05-.06L16 19.86l2.03-1.09a1.017 1.017 0 0 1 1.05.06z" data-original="#376cfb" class=""></path><path fill="#2045ce" d="M4.48 15.93 2 14.6v-1.48a2.989 2.989 0 0 1 1.17-2.38 23.487 23.487 0 0 0 1.31 5.19zM25.79 30H5a3.009 3.009 0 0 1-3-3v-.52l6.19-4.33c3.34 3.8 8.78 7 17.6 7.85z" data-original="#2045ce"></path><path fill="#e6ecff" d="M25 2H7a1 1 0 0 0-1 1v13.747l9.526 5.133a.996.996 0 0 0 .948 0L26 16.747V3a1 1 0 0 0-1-1z" data-original="#e6ecff" class=""></path><path fill="#b7c6e2" d="m19.46 20.27-2.99 1.61a.98.98 0 0 1-.94 0L6 16.75V3a1.003 1.003 0 0 1 1-1h3.63c.47 5.73 2.53 13.63 8.83 18.27z" data-original="#b7c6e2" class=""></path><g fill="#4294ff"><path d="M21 8H11a1 1 0 0 1 0-2h10a1 1 0 0 1 0 2zM21 12H11a1 1 0 0 1 0-2h10a1 1 0 0 1 0 2zM21 16H11a1 1 0 0 1 0-2h10a1 1 0 0 1 0 2z" fill="#4294ff" data-original="#4294ff" class=""></path></g><path fill="#2965ed" d="M11.66 8H11a1 1 0 0 1 0-2h.19c.13.66.29 1.33.47 2zM13.06 12H11a1 1 0 0 1 0-2h1.28a19.666 19.666 0 0 0 .78 2zM15.3 16H11a1 1 0 0 1 0-2h3.04a22.273 22.273 0 0 0 1.26 2z" data-original="#2965ed"></path></g></g></svg>