<svg xmlns="http://www.w3.org/2000/svg" version="1.1" xmlns:xlink="http://www.w3.org/1999/xlink" xmlns:svgjs="http://svgjs.com/svgjs" width="512" height="512" x="0" y="0" viewBox="0 0 512 512" style="enable-background:new 0 0 512 512" xml:space="preserve" class=""><g><path fill="#e1f9ff" d="M465.64 209.29v206.12c0 26.67-10.81 50.82-28.29 68.3S395.72 512 369.05 512c-6.68 0-13.2-.68-19.5-1.97-44-9.02-77.09-47.95-77.09-94.62V209.29c0-46.67 33.09-85.6 77.09-94.62a97.12 97.12 0 0 1 19.5-1.97c53.34 0 96.59 43.24 96.59 96.59z" data-original="#e1f9ff" class=""></path><path fill="#c2e8ef" d="M465.64 209.29v206.12c0 26.67-10.81 50.82-28.29 68.3S395.72 512 369.05 512c-6.68 0-13.2-.68-19.5-1.97 44-9.02 77.09-47.95 77.09-94.62V209.29c0-46.67-33.09-85.6-77.09-94.62a97.12 97.12 0 0 1 19.5-1.97c53.34 0 96.59 43.24 96.59 96.59z" data-original="#c2e8ef"></path><path fill="#ff6248" d="M465.64 312.35v103.06c0 26.67-10.81 50.82-28.29 68.3S395.72 512 369.05 512c-6.68 0-13.2-.68-19.5-1.97-44-9.02-77.09-47.95-77.09-94.62V312.35z" data-original="#ff6248" class=""></path><path fill="#e1f9ff" d="M315.65 183.5v279.52c0 27.05-21.93 48.98-48.98 48.98H95.34c-22.19 0-40.94-14.76-46.95-35a48.872 48.872 0 0 1-2.03-13.98V183.5c0-7.27 2.35-14.34 6.69-20.17l49.15-65.64 78.81-20 77.87 20 50.09 65.64c4.34 5.83 6.68 12.9 6.68 20.17z" data-original="#e1f9ff" class=""></path><path fill="#c2e8ef" d="M315.65 183.5v279.52c0 27.05-21.93 48.98-48.98 48.98H95.34c-22.19 0-40.94-14.76-46.95-35h178.28c27.05 0 48.98-21.93 48.98-48.98V183.5c0-7.27-2.34-14.34-6.68-20.17l-50.09-65.64h40l50.09 65.64c4.34 5.83 6.68 12.9 6.68 20.17z" data-original="#c2e8ef"></path><path fill="#ff6248" d="M46.36 206.94h269.29V441.2H46.36z" data-original="#ff6248" class=""></path><path fill="#aac2cc" d="M96.362 0C83.768 0 73.558 10.21 73.558 22.804v52.081c0 12.594 10.21 22.804 22.804 22.804h169.291c12.594 0 22.804-10.21 22.804-22.804V22.804C288.457 10.21 278.247 0 265.653 0z" data-original="#aac2cc"></path><g fill="#86a0a8"><path d="M181.008 22.33a7.5 7.5 0 0 0-7.5 7.5v38.029c0 4.142 3.357 7.5 7.5 7.5s7.5-3.358 7.5-7.5V29.83a7.5 7.5 0 0 0-7.5-7.5zM102.986 22.33a7.5 7.5 0 0 0-7.5 7.5v38.029c0 4.142 3.357 7.5 7.5 7.5s7.5-3.358 7.5-7.5V29.83a7.5 7.5 0 0 0-7.5-7.5zM141.997 22.33a7.5 7.5 0 0 0-7.5 7.5v38.029c0 4.142 3.357 7.5 7.5 7.5s7.5-3.358 7.5-7.5V29.83a7.5 7.5 0 0 0-7.5-7.5zM219.867 22.33a7.5 7.5 0 0 0-7.5 7.5v38.029c0 4.142 3.357 7.5 7.5 7.5s7.5-3.358 7.5-7.5V29.83a7.5 7.5 0 0 0-7.5-7.5zM258.878 22.33a7.5 7.5 0 0 0-7.5 7.5v38.029c0 4.142 3.357 7.5 7.5 7.5s7.5-3.358 7.5-7.5V29.83a7.5 7.5 0 0 0-7.5-7.5z" fill="#86a0a8" data-original="#86a0a8"></path></g><path fill="#e1f9ff" d="M230.586 312.812h-32.078v-32.078a2.5 2.5 0 0 0-2.5-2.5h-30a2.5 2.5 0 0 0-2.5 2.5v32.078H131.43a2.5 2.5 0 0 0-2.5 2.5v30a2.5 2.5 0 0 0 2.5 2.5h32.078v32.078a2.5 2.5 0 0 0 2.5 2.5h30a2.5 2.5 0 0 0 2.5-2.5v-32.078h32.078a2.5 2.5 0 0 0 2.5-2.5v-30a2.5 2.5 0 0 0-2.5-2.5z" data-original="#e1f9ff" class=""></path></g></svg>