<svg xmlns="http://www.w3.org/2000/svg" version="1.1" xmlns:xlink="http://www.w3.org/1999/xlink" xmlns:svgjs="http://svgjs.com/svgjs" width="512" height="512" x="0" y="0" viewBox="0 0 512 512" style="enable-background:new 0 0 512 512" xml:space="preserve" class=""><g><path fill="#08a30b" fill-rule="evenodd" d="m95.287 99.429 389.965 77.041c10.54 2.082 17.46 12.409 15.377 22.95l-38.768 196.238c-2.083 10.54-12.409 17.46-22.95 15.377L48.947 333.993c-10.54-2.082-17.46-12.409-15.378-22.95l38.769-196.237c2.082-10.54 12.409-17.46 22.949-15.378z" data-original="#08a30b"></path><path fill="#009903" fill-rule="evenodd" d="M63.045 161.844h348.174l62.294 12.307c4.124 5.331 6.586 12.005 6.586 19.226V303.34l-18.238 92.316c-2.083 10.54-12.409 17.46-22.95 15.377l-389.964-77.04c-10.54-2.082-17.46-12.409-15.378-22.95l29.476-149.2z" data-original="#009903" class=""></path><rect width="457.1" height="239.098" x="11" y="173.843" fill="#009903" rx="19.534" data-original="#009903" class=""></rect><rect width="444.725" height="239.098" x="23.375" y="173.843" fill="#2ab52d" rx="19.534" data-original="#2ab52d" class=""></rect><path fill="#32d736" fill-rule="evenodd" d="M73.607 199.238h331.886c0 20.552 16.661 37.212 37.212 37.212v113.885c-20.552 0-37.212 16.661-37.212 37.212H73.607c0-20.552-16.661-37.212-37.212-37.212V236.45c20.552 0 37.212-16.661 37.212-37.212z" data-original="#32d736" class=""></path><circle cx="239.55" cy="293.393" r="68.761" fill="#52fa55" transform="rotate(-2.56 237.556 292.656)" data-original="#52fa55"></circle><g fill-rule="evenodd"><path fill="#7dff7f" d="M245.175 224.862c35.344 2.862 63.135 32.449 63.135 68.53s-27.791 65.668-63.135 68.53c-35.344-2.862-63.136-32.449-63.136-68.53s27.791-65.668 63.136-68.53z" data-original="#7dff7f" class=""></path><path fill="#009903" d="M265.366 317.84c-2.026 8.514-9.699 14.511-19.813 15.949v7.435a6 6 0 1 1-12 0v-7.89c-9.413-2.106-18.278-8.462-20.41-19.698a6.002 6.002 0 0 1 4.777-7.014 6.003 6.003 0 0 1 7.012 4.78c1.459 7.681 9.153 10.573 15.3 10.715 5.617.133 12.263-2.021 13.459-7.056.669-2.811 2.233-9.395-10.95-13.999-1.468-.511-3.102-.989-4.833-1.491-5.743-1.67-12.248-3.559-17.003-8.093-8.3-7.918-9.277-20.644-2.272-29.613 3.494-4.472 8.857-7.459 14.919-8.647v-7.658a6 6 0 1 1 12 0v7.653c.57.104 1.139.218 1.708.36 9.972 2.437 16.922 9.29 18.595 18.335a6 6 0 0 1-11.799 2.182c-1.137-6.148-7.127-8.245-9.65-8.864-6.409-1.567-13.27.123-16.317 4.027-2.779 3.559-3.294 9.352 1.096 13.541 2.636 2.508 7.432 3.905 12.072 5.253 1.806.525 3.672 1.069 5.441 1.685 14.873 5.196 21.676 15.443 18.667 28.108z" data-original="#009903" class=""></path></g></g></svg>