<svg xmlns="http://www.w3.org/2000/svg" version="1.1" xmlns:xlink="http://www.w3.org/1999/xlink" xmlns:svgjs="http://svgjs.com/svgjs" width="512" height="512" x="0" y="0" viewBox="0 0 512 512" style="enable-background:new 0 0 512 512" xml:space="preserve" class=""><g><path fill="#b1cdb4" d="M457.04 198.24C489 265.93 488.52 344 440 344c-56 0-152-16-192-16s-88 16-168 16c-61.81 0-51.99-52.53-25.87-94.87C50.91 216.41 43.53 184.36 32 144c-16-56-8-72 40-72s112 16 184 16 152-16 192-16c37.98 0 61.53 64.9 9.04 126.24z" data-original="#b1cdb4" class=""></path><path fill="#72baaa" d="M448 212a4 4 0 0 1-2.828-6.828 171.66 171.66 0 0 0 6.017-6.331 4 4 0 0 1 5.94 5.361 180.56 180.56 0 0 1-6.3 6.626A3.985 3.985 0 0 1 448 212zM57.581 247.724a4 4 0 0 1-3.33-6.21 185.978 185.978 0 0 1 22.92-28.342 4 4 0 0 1 5.657 5.656 178.016 178.016 0 0 0-21.909 27.106 3.998 3.998 0 0 1-3.338 1.79zM96.005 276a4 4 0 0 1-2.063-7.43C95.614 267.566 135.36 244 176 244a4 4 0 0 1 0 8c-38.386 0-77.552 23.196-77.943 23.43a3.98 3.98 0 0 1-2.052.57zM168.004 180a3.995 3.995 0 0 1-3.332-1.781C155.482 164.434 134.719 148 88 148a4 4 0 0 1 0-8c50.258 0 73.055 18.37 83.328 33.781a4 4 0 0 1-3.324 6.219zM360 172a4 4 0 0 1 0-8c30.254 0 53.117-23.179 60.422-37.79a4 4 0 0 1 7.156 3.58C419.094 146.756 394.096 172 360 172zM392.003 292.001a4.002 4.002 0 0 1-3.581-2.212C381.693 276.33 360.124 268 344 268a4 4 0 0 1 0-8 73.314 73.314 0 0 1 28.625 6.345c7.637 3.394 17.817 9.595 22.953 19.866a4.001 4.001 0 0 1-3.575 5.79z" data-original="#72baaa"></path><path fill="#f5a971" d="M400 496H96c0-126.06 103.11-121.48 118.16-145.67A11.624 11.624 0 0 0 216 344c0-32-56-8-56-88v-88l208-16v88c0 80-88 72-88 104a11.641 11.641 0 0 0 1.83 6.32C296.86 374.52 400 369.92 400 496z" data-original="#f5a971" class=""></path><path fill="#537ec2" d="M400 496H96c0-53.75 18.75-83.75 41.42-102.35 21.89-17.96 47.43-25.3 63.3-33.15 6.25-3.09 11-6.25 13.44-10.17a64.001 64.001 0 0 0 67.67-.01c2.43 3.92 7.19 7.09 13.44 10.18C327.59 376.46 400 390.36 400 496z" data-original="#537ec2"></path><path fill="#b1cdb4" d="M496 376v120H16V384c128 0 72 64 256 64 144 0 160-72 224-72z" data-original="#b1cdb4" class=""></path><path fill="#72baaa" d="M496 376v32c-15.51 0-26.43 6.58-47.72 20.26C414.32 450.1 367.8 480 272 480c-109.89 0-145-23.06-173.22-41.58C78.96 425.4 64.64 416 16 416v-32c128 0 72 64 256 64 144 0 160-72 224-72z" data-original="#72baaa"></path><path fill="#f57a08" d="M368 176v48c0-25.64-32-25.64-32 0-32.05 0-8-32-32-48z" data-original="#f57a08"></path><path fill="#537ec2" d="M184 424q-24 24-24 72H96c0-53.75 18.75-83.75 41.42-102.35z" data-original="#537ec2"></path><path fill="#f57a08" d="M368 224v16c0 80-88 72-88 104 0-32.05 56-35.13 56-80 17.43-7 32-19.31 32-40z" data-original="#f57a08"></path><ellipse cx="236.649" cy="294.709" fill="#e34e03" rx="9.615" ry="16.025" transform="rotate(-28.11 236.265 294.534)" data-original="#e34e03"></ellipse><path fill="#435e99" d="M295.27 360.5a79.844 79.844 0 0 1-94.55 0c6.25-3.09 11-6.25 13.44-10.17a64.001 64.001 0 0 0 67.67-.01c2.43 3.92 7.19 7.09 13.44 10.18z" data-original="#435e99" class=""></path><circle cx="128" cy="472" r="8" fill="#b1cdb4" data-original="#b1cdb4" class=""></circle><circle cx="160" cy="432" r="8" fill="#b1cdb4" data-original="#b1cdb4" class=""></circle><circle cx="192" cy="392" r="8" fill="#b1cdb4" data-original="#b1cdb4" class=""></circle><circle cx="216" cy="432" r="8" fill="#b1cdb4" data-original="#b1cdb4" class=""></circle><circle cx="248" cy="392" r="8" fill="#b1cdb4" data-original="#b1cdb4" class=""></circle><circle cx="272" cy="432" r="8" fill="#b1cdb4" data-original="#b1cdb4" class=""></circle><circle cx="304" cy="392" r="8" fill="#b1cdb4" data-original="#b1cdb4" class=""></circle><circle cx="328" cy="432" r="8" fill="#b1cdb4" data-original="#b1cdb4" class=""></circle><path fill="#435e99" d="M179.543 439.547a4 4 0 0 1-3.278-6.286A68.36 68.36 0 0 1 184 424a4 4 0 0 1 5.656 5.656 60.533 60.533 0 0 0-6.827 8.177 3.995 3.995 0 0 1-3.286 1.714zM160 128c-32 0-32 56 0 56h208c32 0 32-56 0-56z" data-original="#435e99" class=""></path><path fill="#537ec2" d="M400 168s-29.2-14.6-53.44-40H160c0-64 48-104 120-104s120 64 120 144z" data-original="#537ec2"></path><g fill="#b1cdb4"><circle cx="176" cy="88" r="8" fill="#b1cdb4" data-original="#b1cdb4" class=""></circle><circle cx="208" cy="64" r="8" fill="#b1cdb4" data-original="#b1cdb4" class=""></circle><circle cx="240" cy="88" r="8" fill="#b1cdb4" data-original="#b1cdb4" class=""></circle><circle cx="272" cy="64" r="8" fill="#b1cdb4" data-original="#b1cdb4" class=""></circle><circle cx="304" cy="88" r="8" fill="#b1cdb4" data-original="#b1cdb4" class=""></circle><circle cx="240" cy="40" r="8" fill="#b1cdb4" data-original="#b1cdb4" class=""></circle><circle cx="304" cy="40" r="8" fill="#b1cdb4" data-original="#b1cdb4" class=""></circle><circle cx="336" cy="64" r="8" fill="#b1cdb4" data-original="#b1cdb4" class=""></circle><circle cx="368" cy="88" r="8" fill="#b1cdb4" data-original="#b1cdb4" class=""></circle><circle cx="272" cy="112" r="8" fill="#b1cdb4" data-original="#b1cdb4" class=""></circle><circle cx="208" cy="112" r="8" fill="#b1cdb4" data-original="#b1cdb4" class=""></circle></g><path fill="#537ec2" d="M160 164a3.985 3.985 0 0 1-2.828-1.172l-8-8a4 4 0 0 1 5.656-5.656l8 8A4 4 0 0 1 160 164zM168 156a4 4 0 0 1-4-4v-8a4 4 0 0 1 8 0v8a4 4 0 0 1-4 4zM200 164a3.985 3.985 0 0 1-2.828-1.172l-8-8a4 4 0 0 1 5.656-5.656l8 8A4 4 0 0 1 200 164zM208 156a3.985 3.985 0 0 1-2.828-1.172l-8-8a4 4 0 0 1 5.656-5.656l8 8A4 4 0 0 1 208 156zM248 164a3.985 3.985 0 0 1-2.828-1.172l-8-8a4 4 0 0 1 5.656-5.656l8 8A4 4 0 0 1 248 164zM256 156a4 4 0 0 1-4-4v-8a4 4 0 0 1 8 0v8a4 4 0 0 1-4 4zM288 156a4 4 0 0 1-2.828-6.828l8-8a4 4 0 0 1 5.656 5.656l-8 8A3.985 3.985 0 0 1 288 156zM304 164h-8a4 4 0 0 1 0-8h8a4 4 0 0 1 0 8zM336 156a4 4 0 0 1-2.828-6.828l8-8a4 4 0 0 1 5.656 5.656l-8 8A3.985 3.985 0 0 1 336 156zM344 164a4 4 0 0 1-2.828-6.828l8-8a4 4 0 0 1 5.656 5.656l-8 8A3.985 3.985 0 0 1 344 164z" data-original="#537ec2"></path><path fill="#0a4b69" d="M224 224c16 0 8-24 40-24 24 0 32 16 32 32s-8 32-32 32c-32 0-24-24-40-24s-8 24-40 24c-24 0-32-16-32-32s8-32 32-32c32 0 24 24 40 24z" data-original="#0a4b69"></path><circle cx="368" cy="136" r="8" fill="#b1cdb4" data-original="#b1cdb4" class=""></circle><circle cx="400" cy="168" r="24" fill="#e7f2da" data-original="#e7f2da"></circle><path fill="#e37066" d="M224 268c-10.504 0-16-8.049-16-16a16.341 16.341 0 0 1 4.01-10.907A15.44 15.44 0 0 1 224 236a4 4 0 0 1 0 8 7.654 7.654 0 0 0-6.01 2.407A8.484 8.484 0 0 0 216 252c0 3.69 2.095 8 8 8a4 4 0 0 1 0 8z" data-original="#e37066"></path><path fill="#2a447d" d="M374.26 183.017a4 4 0 0 1-3.677-2.422 31.986 31.986 0 0 1 .412-26.107c-14.748-10.779-33.808-27.402-46.425-48.43a4 4 0 0 1 6.86-4.116c12.738 21.232 32.624 37.868 47.062 48.084a4 4 0 0 1 1.09 5.372 23.977 23.977 0 0 0-1.65 22.039 4.002 4.002 0 0 1-3.672 5.58z" data-original="#2a447d"></path></g></svg>