<svg xmlns="http://www.w3.org/2000/svg" version="1.1" xmlns:xlink="http://www.w3.org/1999/xlink" xmlns:svgjs="http://svgjs.com/svgjs" width="512" height="512" x="0" y="0" viewBox="0 0 497.344 497.344" style="enable-background:new 0 0 512 512" xml:space="preserve" class="hovered-paths"><g><path fill="#ffe5c2" d="M346.292 230.13v21.19c0 5.32-1.85 10.48-5.23 14.58l-25 30.4v129.797a7.893 7.893 0 0 1-7.893 7.893H189.176a7.893 7.893 0 0 1-7.893-7.893V296.3l-25-30.4a22.93 22.93 0 0 1-5.23-14.58v-59.53l115.21-1.33a20.21 20.21 0 0 0-14.33 5.94 20.226 20.226 0 0 0-5.93 14.33c0 11.19 9.07 20.27 20.26 20.27z" data-original="#ffe5c2" class=""></path><path fill="#b5adb6" d="M58.021 292.369H13.488C6.039 292.369 0 286.331 0 278.882V125.526c0-7.449 6.039-13.488 13.488-13.488h44.533zM439.324 292.369h44.533c7.449 0 13.488-6.039 13.488-13.488V125.526c0-7.449-6.039-13.488-13.488-13.488h-44.533z" data-original="#b5adb6" class="hovered-path"></path><path fill="#cbc4cc" d="M63.817 230.128V174.28h371.694V231z" data-original="#cbc4cc" class=""></path><g fill="#fed2a4"><path d="M247.412 142.52v30.11c0 11.9-9.65 21.55-21.56 21.55-11.9 0-21.55-9.65-21.55-21.55v-30.11c0-11.9 9.65-21.55 21.55-21.55 5.96 0 11.34 2.41 15.25 6.31 3.9 3.9 6.31 9.29 6.31 15.24z" fill="#fed2a4" data-original="#fed2a4"></path><path d="M291.372 135.544v35.131c0 13.884-10.035 25.143-22.42 25.143-12.375 0-22.41-11.259-22.41-25.143v-35.131c0-13.884 10.035-25.143 22.41-25.143 6.198 0 11.792 2.812 15.858 7.362 4.056 4.55 6.562 10.839 6.562 17.781z" fill="#fed2a4" data-original="#fed2a4"></path><path d="M333.613 145.54v30.11c0 11.9-9.65 21.55-21.56 21.55-11.9 0-21.55-9.65-21.55-21.55v-30.11c0-11.9 9.65-21.55 21.55-21.55 5.96 0 11.34 2.41 15.25 6.31 3.901 3.9 6.31 9.29 6.31 15.24zM204.302 148.56v24.07c0 11.9-9.64 21.55-21.55 21.55-11.9 0-21.55-9.65-21.55-21.55v-24.07c0-11.9 9.65-21.55 21.55-21.55 5.96 0 11.34 2.41 15.24 6.31s6.31 9.29 6.31 15.24z" fill="#fed2a4" data-original="#fed2a4"></path></g><g fill="#ffbd86"><path d="M221.812 172.63v-30.11c0-8.782 5.283-16.332 12.82-19.69a21.56 21.56 0 0 0-8.78-1.86c-11.9 0-21.55 9.65-21.55 21.55v30.11c0 11.9 9.65 21.55 21.55 21.55 3.122 0 6.119-.677 8.797-1.869-7.535-3.358-12.837-10.9-12.837-19.681zM264.053 170.675v-35.131c0-10.401 5.632-19.328 13.659-23.153a20.287 20.287 0 0 0-8.76-1.99c-12.375 0-22.41 11.259-22.41 25.144v35.131c0 13.884 10.035 25.143 22.41 25.143 3.108 0 6.068-.71 8.758-1.991-8.026-3.827-13.657-12.753-13.657-23.153zM308.014 175.65v-30.11c0-8.782 5.293-16.328 12.829-19.686a21.61 21.61 0 0 0-8.789-1.865c-11.9 0-21.55 9.65-21.55 21.55v30.11c0 11.9 9.65 21.55 21.55 21.55 3.122 0 6.08-.677 8.758-1.869-7.536-3.357-12.798-10.899-12.798-19.68zM178.712 172.63v-24.07c0-8.781 5.285-16.331 12.821-19.688a21.56 21.56 0 0 0-8.781-1.862c-11.9 0-21.55 9.65-21.55 21.55v24.07c0 11.9 9.65 21.55 21.55 21.55 3.122 0 6.112-.674 8.789-1.867-7.534-3.357-12.829-10.902-12.829-19.683z" fill="#ffbd86" data-original="#ffbd86"></path></g><path fill="#ffe5c2" d="M346.292 206v24.791l-80.03.209c-11.19 0-20.26-9.08-20.26-20.27 0-5.6 2.27-10.66 5.93-14.33a20.21 20.21 0 0 1 14.33-5.94h64.49c8.58 0 15.54 6.96 15.54 15.54z" data-original="#ffe5c2" class=""></path><g fill="#a79ba7"><path d="M89.139 341.053H66.234c-11.716 0-21.214-9.498-21.214-21.214V84.568c0-11.716 9.498-21.214 21.214-21.214h22.905c11.716 0 21.214 9.498 21.214 21.214V319.84c-.001 11.716-9.498 21.213-21.214 21.213zM408.206 341.053h22.905c11.716 0 21.214-9.498 21.214-21.214V84.568c0-11.716-9.498-21.214-21.214-21.214h-22.905c-11.716 0-21.214 9.498-21.214 21.214V319.84c0 11.716 9.498 21.213 21.214 21.213z" fill="#a79ba7" data-original="#a79ba7" class=""></path></g></g></svg>