<svg width="200" height="200" viewBox="0 0 200 200" fill="none" xmlns="http://www.w3.org/2000/svg">
<path d="M154.708 29.1606C167.512 44.3782 176.475 59.3334 185.182 76.7812C194.017 94.2289 202.595 114.169 199.266 131.617C195.809 149.196 180.572 164.413 163.415 175.827C146.385 187.109 127.435 194.455 106.18 197.997C84.7966 201.539 60.8527 201.146 41.5184 190.52C22.184 180.025 7.33112 159.297 2.08139 136.733C-3.0403 114.3 1.44117 89.8998 13.8613 73.8951C26.4094 57.7592 46.8961 49.7568 64.0538 35.8511C81.2114 22.0766 94.912 2.26745 110.021 0.168476C125.258 -1.79932 141.903 13.8118 154.708 29.1606Z" fill="#F2F4F8"/>
<mask id="mask0_14_213" style="mask-type:luminance" maskUnits="userSpaceOnUse" x="50" y="50" width="100" height="100">
<path d="M50 50H150V150H50V50Z" fill="white"/>
</mask>
<g mask="url(#mask0_14_213)">
<path d="M102.93 51.4648L142.676 97.0703H148.536C148.536 71.883 128.117 51.4648 102.93 51.4648Z" fill="#61CE5B"/>
<path d="M102.93 51.4648V97.0703H142.676C142.676 71.883 124.882 51.4648 102.93 51.4648Z" fill="#94E368"/>
<path d="M102.93 77.1973V97.0703H148.536C148.536 71.883 128.117 51.4648 102.93 51.4648V71.3379" stroke="black" stroke-width="2.92968" stroke-miterlimit="10" stroke-linecap="round" stroke-linejoin="round"/>
<path d="M135.356 103.662L96.3423 148.535C121.125 148.535 141.215 128.445 141.215 103.662H135.356Z" fill="#793BCC"/>
<path d="M96.3347 58.7891C77.6365 58.7891 61.6119 70.227 54.8691 86.4865V103.662H96.3347V58.7891Z" fill="#14CFFF"/>
<path d="M54.8723 86.4879C52.6783 91.7789 51.4648 97.5791 51.4648 103.663C51.4648 116.055 56.4875 127.273 64.6078 135.394H96.3379V103.663L54.8723 86.4879Z" fill="#3B88F5"/>
<path d="M96.3341 103.662L64.604 135.392C72.7245 143.512 83.9429 148.535 96.3341 148.535C117.881 148.535 135.348 128.445 135.348 103.662H96.3341Z" fill="#9255E3"/>
<path d="M96.3379 103.662V58.7891C71.5551 58.7891 51.4648 78.8793 51.4648 103.662C51.4648 128.445 71.5551 148.535 96.3379 148.535C121.121 148.535 141.211 128.445 141.211 103.662H96.3379Z" stroke="black" stroke-width="2.92968" stroke-miterlimit="10" stroke-linecap="round" stroke-linejoin="round"/>
<path d="M64.608 135.394L96.3381 103.664L54.8809 86.4915" stroke="black" stroke-width="2.92968" stroke-miterlimit="10" stroke-linecap="round" stroke-linejoin="round"/>
</g>
</svg>
