<svg width="200" height="200" viewBox="0 0 200 200" fill="none" xmlns="http://www.w3.org/2000/svg">
<path d="M170.118 22.4339C186.233 36.6208 193.921 55.1458 197.47 72.6155C201.166 90.0853 200.722 106.617 196.73 123.97C192.739 141.322 185.199 159.73 169.379 174.972C153.412 190.214 129.166 202.408 107.58 199.594C85.8471 196.78 66.7752 178.841 51.6951 163.365C36.615 147.888 25.231 134.874 15.3254 119.514C5.41982 104.155 -3.15516 86.3334 1.13233 70.5051C5.27197 54.794 22.5698 41.0762 41.9374 27.8273C61.4528 14.5784 83.1859 1.79847 106.398 0.15702C129.461 -1.36719 154.003 8.3643 170.118 22.4339Z" fill="#F2F4F8"/>
<g clip-path="url(#clip0_14_212)">
<path d="M62.051 85.5062L57.6125 93.2735C57.3596 93.7162 57.2265 94.2172 57.2266 94.7271V135.743C57.2266 137.361 58.5383 138.672 60.1562 138.672H81.6406V81.0552C81.6406 79.4372 80.3289 78.1255 78.7109 78.1255H74.7693C69.526 78.1255 64.6525 80.9536 62.051 85.5062Z" fill="#FFC89A"/>
<path d="M132.422 146.68H87.5C82.6459 146.68 78.7109 142.745 78.7109 137.891V55.4688C78.7109 50.6146 82.6459 46.6797 87.5 46.6797H132.422C137.276 46.6797 141.211 50.6146 141.211 55.4688V137.891C141.211 142.745 137.276 146.68 132.422 146.68Z" fill="#0A617D"/>
<path d="M132.422 46.6797H109.961V146.68H132.422C137.276 146.68 141.211 142.745 141.211 137.891V55.4688C141.211 50.6146 137.276 46.6797 132.422 46.6797Z" fill="#08475E"/>
<path d="M149.659 93.2612H137.061C132.881 93.2612 129.493 89.8728 129.493 85.6929C129.493 81.513 132.881 78.1245 137.061 78.1245H149.659C153.839 78.1245 157.227 81.513 157.227 85.6929C157.227 89.8728 153.839 93.2612 149.659 93.2612ZM149.659 108.398H137.061C132.881 108.398 129.493 105.009 129.493 100.83C129.493 96.6497 132.881 93.2612 137.061 93.2612H149.659C153.839 93.2612 157.227 96.6497 157.227 100.83C157.227 105.009 153.839 108.398 149.659 108.398ZM149.659 123.535H137.061C132.881 123.535 129.493 120.146 129.493 115.966C129.493 111.786 132.881 108.398 137.061 108.398H149.659C153.839 108.398 157.227 111.786 157.227 115.966C157.227 120.146 153.839 123.535 149.659 123.535ZM149.659 138.671H137.061C132.881 138.671 129.493 135.283 129.493 131.103C129.493 126.923 132.881 123.535 137.061 123.535H149.659C153.839 123.535 157.227 126.923 157.227 131.103C157.227 135.283 153.839 138.671 149.659 138.671Z" fill="#FAB68C"/>
<path d="M109.961 98.731C102.961 98.731 97.2656 93.0358 97.2656 86.0356C97.2656 79.0354 102.961 73.3403 109.961 73.3403C116.961 73.3403 122.656 79.0354 122.656 86.0356C122.656 93.0358 116.961 98.731 109.961 98.731Z" fill="#FF6378"/>
<path d="M98.2422 65.332C99.8602 65.332 101.172 64.0204 101.172 62.4023C101.172 60.7843 99.8602 59.4727 98.2422 59.4727C96.6242 59.4727 95.3125 60.7843 95.3125 62.4023C95.3125 64.0204 96.6242 65.332 98.2422 65.332Z" fill="#FFE278"/>
<path d="M109.961 65.332C111.579 65.332 112.891 64.0204 112.891 62.4023C112.891 60.7843 111.579 59.4727 109.961 59.4727C108.343 59.4727 107.031 60.7843 107.031 62.4023C107.031 64.0204 108.343 65.332 109.961 65.332Z" fill="#FF6378"/>
<path d="M121.68 65.332C123.298 65.332 124.609 64.0204 124.609 62.4023C124.609 60.7843 123.298 59.4727 121.68 59.4727C120.062 59.4727 118.75 60.7843 118.75 62.4023C118.75 64.0204 120.062 65.332 121.68 65.332Z" fill="#00A763"/>
<path d="M109.961 133.887C102.961 133.887 97.2656 128.192 97.2656 121.191C97.2656 114.191 102.961 108.496 109.961 108.496C116.961 108.496 122.656 114.191 122.656 121.191C122.656 128.192 116.961 133.887 109.961 133.887Z" fill="#85DC1E"/>
<path d="M109.961 73.3403V98.731C116.962 98.731 122.657 93.0358 122.657 86.0356C122.657 79.0354 116.962 73.3403 109.961 73.3403Z" fill="#E20059"/>
<path d="M109.961 108.496V133.887C116.961 133.887 122.656 128.192 122.656 121.191C122.656 114.191 116.961 108.496 109.961 108.496Z" fill="#00A763"/>
<path d="M109.961 59.4727V65.332C111.579 65.332 112.891 64.0203 112.891 62.4023C112.891 60.7844 111.579 59.4727 109.961 59.4727Z" fill="#E20059"/>
<path d="M78.7112 111.329C84.5075 109.59 88.4769 104.255 88.4769 98.2034V93.2622H102.393C106.573 93.2622 109.961 89.8737 109.961 85.6938C109.961 81.514 106.573 78.1255 102.393 78.1255H74.7696C69.5261 78.1255 64.6528 80.9536 62.0513 85.5062L57.6128 93.2735" fill="#FFC89A"/>
</g>
<defs>
<clipPath id="clip0_14_212">
<rect width="100" height="100" fill="white" transform="translate(57.2266 46.6797)"/>
</clipPath>
</defs>
</svg>
