<svg width="200" height="200" viewBox="0 0 200 200" fill="none" xmlns="http://www.w3.org/2000/svg">
<path d="M144.743 33.349C167.761 47.0137 193.488 59.0385 198.904 76.5293C204.17 93.8834 189.426 116.703 176.788 136.79C164.301 156.741 154.071 173.685 138.424 183.933C122.778 194.182 101.715 197.598 79.2987 199.238C57.0326 200.877 33.4125 200.741 20.3236 189.809C7.23476 178.741 4.82761 156.877 3.02225 138.157C1.21689 119.3 0.0133146 103.585 0.0133146 83.2249C-0.137132 63.0013 0.765545 38.1316 14.4562 21.7341C27.9964 5.33652 54.3246 -2.72562 77.7943 0.827185C101.114 4.51664 121.725 19.6844 144.743 33.349Z" fill="#F2F4F8"/>
<path fill-rule="evenodd" clip-rule="evenodd" d="M69.7676 146.721H127.046L132.523 136.255L127.046 125.785H69.7676V146.721Z" fill="#FFD772"/>
<mask id="mask0_14_211" style="mask-type:luminance" maskUnits="userSpaceOnUse" x="38" y="50" width="101" height="100">
<path d="M38.8672 49.9998H138.867V150H38.8672V49.9998Z" fill="white"/>
</mask>
<g mask="url(#mask0_14_211)">
<path fill-rule="evenodd" clip-rule="evenodd" d="M69.7654 146.723V124.984C69.7654 124.429 69.3109 123.98 68.7554 123.98H46.2154C46.0835 123.98 45.9528 124.006 45.8309 124.056C45.7089 124.107 45.5982 124.181 45.5049 124.274C45.4116 124.367 45.3376 124.478 45.2871 124.6C45.2367 124.722 45.2108 124.852 45.2109 124.984V147.525C45.2109 148.075 45.6543 148.529 46.2041 148.535H68.7665C69.3165 148.529 69.7654 148.075 69.7654 147.525V146.723Z" fill="#F9F7F8"/>
<path fill-rule="evenodd" clip-rule="evenodd" d="M46.2154 112.275H68.7554C69.3111 112.275 69.7654 111.82 69.7654 111.27V88.7299C69.7654 88.1744 69.3111 87.7199 68.7554 87.7199H46.2154C45.66 87.7199 45.2109 88.1744 45.2109 88.7299V111.27C45.2109 111.82 45.66 112.275 46.2154 112.275Z" fill="#F9F7F8"/>
<path fill-rule="evenodd" clip-rule="evenodd" d="M69.7666 89.5269V110.468H127.045L132.522 99.9976L127.045 89.5269H69.7666Z" fill="#75CEF8"/>
<path fill-rule="evenodd" clip-rule="evenodd" d="M69.7666 74.2075H127.045L132.522 63.7425L127.045 53.2718H69.7666V74.2075Z" fill="#EB5468"/>
<path fill-rule="evenodd" clip-rule="evenodd" d="M69.7654 74.208V52.4698C69.7654 51.9143 69.3109 51.4655 68.7554 51.4655H46.2154C46.0835 51.4654 45.9528 51.4913 45.8309 51.5417C45.709 51.5921 45.5982 51.6661 45.5049 51.7594C45.4116 51.8526 45.3376 51.9634 45.2872 52.0853C45.2367 52.2072 45.2108 52.3379 45.2109 52.4698V75.0104C45.2109 75.566 45.66 76.0205 46.2154 76.0205H68.7554C69.3109 76.0205 69.7654 75.566 69.7654 75.0104V74.208Z" fill="#F9F7F8"/>
<path fill-rule="evenodd" clip-rule="evenodd" d="M62.6403 53.2726V75.0108C62.6403 75.5665 62.1858 76.021 61.6304 76.021H68.7565C69.312 76.021 69.7665 75.5665 69.7665 75.0108V52.4703C69.7665 51.9146 69.312 51.4658 68.7565 51.4658H61.6304C62.1858 51.4658 62.6403 51.9146 62.6403 52.4703V53.2726Z" fill="#DDDAEC"/>
<path fill-rule="evenodd" clip-rule="evenodd" d="M68.7565 87.7204H61.6304C62.1858 87.7204 62.6403 88.1749 62.6403 88.7303V111.271C62.6403 111.821 62.1858 112.275 61.6304 112.275H68.7565C69.312 112.275 69.7665 111.821 69.7665 111.271V88.7303C69.7665 88.1749 69.312 87.7204 68.7565 87.7204Z" fill="#DDDAEC"/>
<path fill-rule="evenodd" clip-rule="evenodd" d="M68.757 123.98H61.6309C62.1863 123.98 62.6408 124.429 62.6408 124.984V147.525C62.6408 148.075 62.192 148.529 61.642 148.535H68.7681C69.3181 148.529 69.767 148.075 69.767 147.525V124.984C69.767 124.429 69.3125 123.98 68.757 123.98Z" fill="#DDDAEC"/>
<path fill-rule="evenodd" clip-rule="evenodd" d="M118.135 53.2713C119.437 56.8625 120.166 60.8635 120.166 65.0832C120.166 68.2817 119.751 71.351 118.982 74.207H127.045L132.522 63.742L127.045 53.2713H118.135Z" fill="#E5384F"/>
<path fill-rule="evenodd" clip-rule="evenodd" d="M118.134 89.5269C119.436 93.1181 120.165 97.1191 120.165 101.344C120.165 104.537 119.75 107.607 118.981 110.468H127.044L132.521 99.9976L127.044 89.5269H118.134Z" fill="#60B7FF"/>
<path fill-rule="evenodd" clip-rule="evenodd" d="M118.135 125.787C119.437 129.378 120.166 133.379 120.166 137.599C120.166 140.792 119.751 143.867 118.982 146.723H127.045L132.522 136.258L127.045 125.787H118.135Z" fill="#FBBA58"/>
<path d="M68.7554 51.4653H46.2154C46.0835 51.4651 45.9528 51.491 45.8308 51.5414C45.7089 51.5919 45.5981 51.6659 45.5048 51.7592C45.4115 51.8525 45.3375 51.9633 45.2871 52.0852C45.2367 52.2071 45.2108 52.3378 45.2109 52.4698V75.0104C45.2109 75.566 45.6598 76.0205 46.2154 76.0205H68.7554C69.3109 76.0205 69.7654 75.566 69.7654 75.0104V52.4698C69.7654 51.9141 69.3109 51.4653 68.7554 51.4653Z" stroke="black" stroke-width="2.92968" stroke-miterlimit="10" stroke-linecap="round" stroke-linejoin="round"/>
<path d="M95.8753 53.2718H69.7666V74.2075H127.045L132.522 63.7425L127.045 53.2718H102.726" stroke="black" stroke-width="2.92968" stroke-miterlimit="10" stroke-linecap="round" stroke-linejoin="round"/>
<path d="M68.7554 87.7199H46.2154C45.6598 87.7199 45.2109 88.1744 45.2109 88.7299V111.271C45.2109 111.82 45.6598 112.275 46.2154 112.275H68.7554C69.3109 112.275 69.7654 111.82 69.7654 111.271V88.7299C69.7654 88.1744 69.3109 87.7199 68.7554 87.7199Z" stroke="black" stroke-width="2.92968" stroke-miterlimit="10" stroke-linecap="round" stroke-linejoin="round"/>
<path d="M69.7666 110.468V89.5269H127.045L132.522 99.9976L127.045 110.468H69.7666Z" stroke="black" stroke-width="2.92968" stroke-miterlimit="10" stroke-linecap="round" stroke-linejoin="round"/>
<path d="M68.7554 123.98H46.2154C46.0835 123.98 45.9528 124.006 45.8309 124.056C45.7089 124.107 45.5982 124.181 45.5049 124.274C45.4116 124.367 45.3376 124.478 45.2871 124.6C45.2367 124.722 45.2108 124.852 45.2109 124.984V147.525C45.2109 148.081 45.6598 148.535 46.2154 148.535H68.7554C69.3109 148.535 69.7654 148.081 69.7654 147.525V124.984C69.7654 124.429 69.3109 123.98 68.7554 123.98Z" stroke="black" stroke-width="2.92968" stroke-miterlimit="10" stroke-linecap="round" stroke-linejoin="round"/>
<path d="M56.333 58.3501H58.6393V69.1294" stroke="black" stroke-width="2.92968" stroke-miterlimit="10" stroke-linecap="round" stroke-linejoin="round"/>
<path d="M60.4461 105.469C60.4461 105.469 55.2053 105.536 54.9529 105.452C54.7059 105.368 55.3512 104.936 58.7908 100.02C59.4361 99.1002 59.7896 98.326 59.9412 97.6806L59.9916 97.2597C59.9916 95.739 58.7572 94.5045 57.231 94.5045C56.5925 94.5037 55.9735 94.725 55.4801 95.1303C54.9867 95.5357 54.6495 96.1 54.5264 96.7265" stroke="black" stroke-width="2.92968" stroke-miterlimit="10" stroke-linecap="round" stroke-linejoin="round"/>
<path d="M54.7778 132.965C55.0302 131.696 56.147 130.737 57.488 130.737C59.0087 130.737 60.2431 131.971 60.2431 133.498C60.2431 135.018 59.0087 136.258 57.488 136.258" stroke="black" stroke-width="2.92968" stroke-miterlimit="10" stroke-linecap="round" stroke-linejoin="round"/>
<path d="M57.4883 136.258C59.009 136.258 60.2433 137.492 60.2433 139.013C60.2433 140.539 59.009 141.774 57.4883 141.774C56.0912 141.774 54.9408 140.742 54.7557 139.4C54.7377 139.272 54.7283 139.143 54.7275 139.013" stroke="black" stroke-width="2.92968" stroke-miterlimit="10" stroke-linecap="round" stroke-linejoin="round"/>
<path d="M86.8308 60.2583H77.7969" stroke="black" stroke-width="2.92968" stroke-miterlimit="10" stroke-linecap="round" stroke-linejoin="round"/>
<path d="M96.1625 67.4517H77.7974" stroke="black" stroke-width="2.92968" stroke-miterlimit="10" stroke-linecap="round" stroke-linejoin="round"/>
<path d="M86.8303 96.2769H77.7964" stroke="black" stroke-width="2.92968" stroke-miterlimit="10" stroke-linecap="round" stroke-linejoin="round"/>
<path d="M96.1625 103.476H77.7974" stroke="black" stroke-width="2.92968" stroke-miterlimit="10" stroke-linecap="round" stroke-linejoin="round"/>
<path d="M86.8308 132.762H77.7969" stroke="black" stroke-width="2.92968" stroke-miterlimit="10" stroke-linecap="round" stroke-linejoin="round"/>
<path d="M96.1625 139.956H77.7974" stroke="black" stroke-width="2.92968" stroke-miterlimit="10" stroke-linecap="round" stroke-linejoin="round"/>
<path d="M95.8748 125.787H69.7661V146.723H127.045L132.521 136.258L127.045 125.787H102.726" stroke="black" stroke-width="2.92968" stroke-miterlimit="10" stroke-linecap="round" stroke-linejoin="round"/>
</g>
</svg>
